<svg viewBox="0 0 489 302" fill="none" xmlns="http://www.w3.org/2000/svg">
<path fill-rule="evenodd" clip-rule="evenodd" d="M234.891 142.695C179.912 221.177 132.319 289.127 129.129 293.695L123.329 302H138.667H154.006L253.967 159.305C308.946 80.823 356.539 12.873 359.729 8.305L365.529 0H350.191H334.852L234.891 142.695ZM145.933 25.168C144.889 27.966 110.796 204.538 111.162 205.25C111.632 206.166 171.072 206.088 177.601 205.162L182.274 204.5L209.918 165.065L237.562 125.63L235.36 119.565C232.488 111.656 228.723 106.299 223.082 102.096L218.513 98.691L220.483 95.925C238.543 70.562 232.269 36.607 207.726 26.882C200.553 24.039 146.908 22.551 145.933 25.168ZM38.96 96.202C17.532 125.463 0 150.122 0 151C0 151.878 17.532 176.537 38.96 205.798L77.919 259H99.297C116.249 259 120 259 120 259C110.828 247.169 42.429 151.839 42.429 151C42.429 150.161 111.328 54.831 120.5 43C120.5 43 116.249 43 99.297 43H77.919L38.96 96.202ZM369 43C378.172 54.831 446.429 150.161 446.429 151C446.429 151.839 378.172 247.169 369 259C369 259 372.609 259 389.561 259H410.939L449.898 205.798C471.326 176.537 488.858 151.878 488.858 151C488.858 150.122 471.326 125.463 449.898 96.202L410.939 43H389.561C372.609 43 369 43 369 43ZM191.462 61.517C202.23 67.085 196.739 86.702 183.265 90.804C176.428 92.885 166.256 93.141 166.809 91.218C167.081 90.273 168.48 83.425 169.919 76C171.358 68.575 172.722 61.938 172.951 61.25C173.569 59.39 187.743 59.594 191.462 61.517ZM300.454 106.087C291.64 118.677 284.429 129.158 284.429 129.378C284.429 129.597 287.016 128.717 290.179 127.423C309.79 119.394 331.492 122.666 343.253 135.424L347.359 139.879L361.822 126.96C379.099 111.528 378.237 112.748 374.935 108.419C365.104 95.529 343.619 85.358 322.704 83.69L316.48 83.194L300.454 106.087ZM194.008 127.896C210.873 135.556 205.361 162.702 185.742 168.606C178.038 170.925 152.429 170.561 152.429 168.133C152.429 166.247 159.076 130.99 160.042 127.75C160.839 125.077 188.059 125.195 194.008 127.896ZM231.429 204.618C223.454 216.018 216.137 226.556 215.168 228.035C213.431 230.688 213.461 230.832 217.38 238.612C236.494 276.554 281.296 288.405 324.972 267.072C333.949 262.688 351.429 251.007 351.429 249.393C351.429 248.955 334.991 226.065 331.9 222.198C331.767 222.032 328.074 224.337 323.692 227.321C287.775 251.778 248.299 235.411 246.454 195.297L245.929 183.889L231.429 204.618Z" fill="white"/>
</svg>
