<svg width="36" height="35" viewBox="0 0 36 35" fill="none" xmlns="http://www.w3.org/2000/svg">
<g clip-path="url(#clip1)">
<path d="M17.6362 35C27.3012 35 35.1362 27.165 35.1362 17.5C35.1362 7.83502 27.3012 0 17.6362 0C7.97125 0 0.13623 7.83502 0.13623 17.5C0.13623 27.165 7.97125 35 17.6362 35Z" fill="#663399"/>
<path d="M7.88623 27.25C5.26123 24.625 3.88623 21.125 3.88623 17.75L17.5112 31.25C14.0112 31.125 10.5112 29.875 7.88623 27.25ZM20.6362 30.875L4.26123 14.5C5.63623 8.375 11.1362 3.75 17.6362 3.75C22.2612 3.75 26.2612 6 28.7612 9.375L26.8862 11C24.7612 8.125 21.3862 6.25 17.6362 6.25C12.7612 6.25 8.63623 9.375 7.01123 13.75L21.3862 28.125C25.0112 26.875 27.7612 23.75 28.6362 20H22.6362V17.5H31.3862C31.3862 24 26.7612 29.5 20.6362 30.875Z" fill="white"/>
</g>
<defs>
<clipPath id="clip1">
<rect width="35" height="35" fill="white" transform="translate(0.13623)"/>
</clipPath>
</defs>
</svg>
