<svg width="31" height="35" viewBox="0 0 31 35" fill="none" xmlns="http://www.w3.org/2000/svg">
<title>GreenSock (GSAP)</title>
<path d="M4.73784 15.3001C3.71608 15.7807 1.01174 17.9444 0.490882 18.5854C-0.0500442 19.2264 -0.210257 18.2248 0.350635 16.5621C0.791243 15.22 1.91322 13.3969 3.79624 11.8344C4.89795 10.933 7.32199 9.63091 8.80433 8.86958C9.10488 8.70927 12.9912 7.06662 16.4569 6.2453C16.7574 6.16515 16.0963 6.7461 15.9961 7.06663C15.4752 8.58909 5.07823 15.1197 5.07823 15.1197L4.73784 15.3001Z" fill="black"/>
<path d="M19.3816 33.67C19.5619 34.7517 19.4017 34.8319 18.2799 34.9721C17.158 35.1124 16.3367 34.6916 16.0362 34.4112C15.7357 34.1306 15.6757 33.5098 15.9761 32.9489C16.1565 32.5882 16.3368 32.468 16.437 32.0273C16.5371 31.6067 16.6173 31.5065 16.6973 31.3463C16.7774 31.2059 16.7976 31.0657 16.8175 30.0841C16.8376 29.1026 16.8175 27.2595 16.9177 26.4783C17.018 25.6771 20.4836 26.8389 20.4836 26.8389C20.4836 26.8389 19.6622 28.8822 19.4419 29.383C19.2215 29.8839 19.2416 30.8454 19.2416 31.0457C19.2416 31.246 19.1615 31.6466 19.1013 31.6667C19.0412 31.6866 19.3016 32.2075 19.1814 32.5081C19.1012 32.7886 19.3616 33.5098 19.3816 33.67Z" fill="black"/>
<path d="M20.7038 3.04009C20.5835 2.27886 20.7038 0.776269 20.864 0.535999C21.3649 -0.145174 24.0092 -0.225231 24.5701 0.576028C24.8105 0.936579 24.7905 1.77796 24.7504 2.31889C24.7104 2.85972 24.5701 4.02163 24.5501 4.40234C24.5301 4.68284 21.6253 5.12345 20.9843 4.36221C20.8039 4.16197 20.7038 3.04009 20.7038 3.04009Z" fill="black"/>
<path d="M26.5934 31.7268C27.8154 32.6083 28.7569 32.7685 29.3779 33.089C29.9989 33.4096 29.8387 34.0306 28.797 34.2109C27.9556 34.3711 26.6335 34.0506 25.752 34.0506C24.8706 34.0506 22.9074 34.1508 22.3865 33.7903C21.7856 33.3696 22.0459 32.5882 22.0459 32.5882C22.2062 32.1476 22.6068 31.1659 22.4866 30.3646C22.3664 29.5634 22.2061 29.1227 21.9057 28.3814C21.6052 27.6402 21.3849 25.8173 21.6654 25.7171C21.9459 25.6169 21.8656 25.7171 22.2263 25.7971C22.5868 25.8772 22.9875 25.9975 23.7688 25.9975C24.5501 25.9975 25.4115 25.8772 25.712 25.8172C26.0125 25.7571 26.2528 25.6969 26.1526 26.318C26.0525 26.939 25.752 28.1009 25.732 29.0024C25.712 29.9039 25.712 30.9456 25.7721 31.1259C25.8321 31.3061 26.2729 31.5065 26.5934 31.7268Z" fill="black"/>
<path d="M22.3064 5.04338C20.1029 6.94656 15.8359 7.46732 9.50567 9.91132C7.88299 10.5323 3.55598 12.3954 2.51425 14.3386C6.01994 12.3153 7.3221 15.0998 7.6025 17.9644C7.86283 20.6488 9.20511 22.0512 12.6507 21.9709C16.1965 21.8909 17.2783 23.9542 18.2598 26.3782C20.1629 17.103 23.2079 15.3001 25.171 13.7176C29.3379 10.332 24.2095 4.36221 22.3064 5.04338Z" fill="#88CE02"/>
<path d="M22.3064 5.0434C17.0178 6.88638 11.7892 7.34715 5.63931 11.1333C4.17694 12.0348 1.09189 14.078 0.490875 17.9845C2.73444 15.5004 7.9229 12.3754 14.2733 10.3922C17.4785 9.39047 19.8224 8.72946 22.667 7.62765C22.4667 6.34545 22.4667 5.84466 22.3064 5.0434Z" fill="#88CE02"/>
<path d="M29.0574 16.0212C29.0574 16.0212 28.6768 17.3234 27.9155 17.7441C27.9155 17.7441 27.3546 17.9445 26.2329 17.3235C25.9123 17.1432 25.672 16.5222 25.6919 16.3218C25.712 15.841 26.0124 15.6207 26.0124 15.6207C26.0124 15.6207 26.3331 15.0797 26.7136 15.0998C27.0943 15.1198 27.7353 15.1798 27.9357 14.9996C28.1159 14.7992 29.0975 15.3601 29.0574 16.0212Z" fill="black"/>
<path d="M20.8841 3.4207C20.8841 3.4207 20.804 4.44246 20.6638 5.08341C20.6437 5.20369 20.0428 5.26368 19.602 5.44406C20.4434 7.84793 25.5117 7.82787 26.1728 6.646C25.8522 6.42569 25.2112 6.08511 24.9107 5.96492C24.6102 5.84464 24.6302 5.8647 24.6102 5.30381C24.5902 4.74282 24.5501 3.70119 24.51 3.4207C24.4699 3.1402 21.3648 3.1402 20.8841 3.4207Z" fill="black"/>
<path d="M21.0844 3.42072C21.0844 3.42072 21.0844 4.00168 21.0243 4.56257C21.0044 4.823 20.9843 4.98321 20.9443 5.18355C20.9242 5.30383 21.6253 5.78447 21.8257 6.84626C22.7873 8.9897 25.011 7.92801 25.9324 6.90635C25.6119 6.68595 25.091 6.38549 24.4901 6.14512C24.1895 6.02484 24.3298 5.76451 24.3098 5.20361C24.2898 4.64272 24.2096 3.8213 24.1696 3.52084C24.1293 3.22038 21.5653 3.14023 21.0844 3.42072Z" fill="#EFEFEF"/>
<path d="M20.8841 3.4207C20.8841 3.4207 20.864 3.78135 20.804 4.20199C21.0644 4.46233 21.405 4.82298 21.6655 5.04338C21.8458 5.20369 22.2864 5.18363 22.6872 5.18363C23.0477 5.18363 23.3682 5.22365 23.5085 5.1436C23.8291 4.98329 24.2898 4.58271 24.5502 4.28215C24.5302 3.9216 24.5102 3.58101 24.4902 3.4207C24.47 3.1402 21.3648 3.1402 20.8841 3.4207Z" fill="black"/>
<path d="M22.7071 4.94314C22.4666 4.94314 22.1861 4.92318 21.9658 4.88305C21.8656 4.86309 21.7655 4.80299 21.6853 4.76287C21.5451 4.66265 21.4048 4.54256 21.2447 4.42228C20.9241 4.18191 20.9041 4.04167 20.9041 3.98167C21.0444 2.71954 20.864 1.65785 20.864 1.65785C20.864 1.65785 20.7238 1.11693 21.485 0.97668C22.2462 0.836432 22.707 0.816467 22.707 0.816467C22.707 0.816467 23.1878 0.816467 23.929 0.97668C24.6902 1.11693 24.55 1.65785 24.55 1.65785C24.55 1.65785 24.3697 2.71954 24.51 3.98167C24.51 4.04167 24.49 4.18191 24.1694 4.42228C23.8889 4.62262 23.6686 4.84293 23.4483 4.88305C23.2279 4.92318 22.9474 4.94314 22.7071 4.94314Z" fill="black"/>
<path d="M22.7071 0.295654C21.385 0.295654 21.1245 0.656207 20.7438 1.05689C20.6638 1.15701 20.7238 1.75802 20.8641 3.04012H21.0444C21.0444 3.04012 20.9241 2.67947 20.9442 2.25882C20.9642 1.83818 21.0444 1.85824 20.9842 1.75803C20.9041 1.63774 20.7438 1.4374 21.1045 1.23716C21.465 1.03682 22.0259 1.39737 22.7071 1.41744C23.3882 1.39737 23.9691 1.03682 24.3297 1.23716C24.6902 1.4374 24.53 1.63774 24.45 1.75803C24.3698 1.87821 24.4699 1.83808 24.49 2.25882C24.51 2.67947 24.3898 3.04012 24.3898 3.04012H24.5701C24.6902 1.75802 24.7704 1.19713 24.7103 1.09691C24.3697 0.656206 24.0292 0.315619 22.7071 0.295654Z" fill="black"/>
<path d="M29.0574 16.0813C29.0574 16.0813 28.6768 17.3033 27.9356 17.724C27.7753 17.6439 27.7954 17.5237 27.6551 17.3434C27.615 17.2834 27.4747 17.2432 27.4148 17.1832C27.3547 17.1231 27.3747 17.0228 27.2745 16.9428C27.1944 16.8626 27.1343 16.9227 27.0541 16.8626C26.974 16.7826 26.9539 16.6824 26.8939 16.6224C26.8538 16.5822 26.6936 16.5623 26.6535 16.5221C26.5533 16.4219 25.672 16.2417 25.712 16.0413C25.7921 15.7408 25.9524 15.5205 25.9524 15.5205C25.9524 15.5205 26.333 14.9596 26.7135 14.9795C27.0941 14.9996 27.4548 15.0797 27.6551 14.8995C27.8755 14.699 29.1176 15.4403 29.0574 16.0813Z" fill="black"/>
<path d="M26.4532 7.22695C26.4532 7.22695 27.7152 6.92639 28.5766 7.74781C29.4381 8.5892 29.3779 9.63082 29.1176 10.2719C29.3379 10.5323 29.7386 11.2534 29.4381 12.1149C30.7602 13.2366 30.1793 14.9595 28.9974 16.1014C28.9974 16.1014 28.7169 15.0597 27.5951 14.9996C27.6351 14.599 26.5534 14.2784 27.0542 13.2366C26.2929 13.0564 26.313 12.5355 26.1928 11.8945C26.0926 11.2534 26.4532 7.22695 26.4532 7.22695Z" fill="black"/>
<path d="M25.9924 7.78787C25.9924 7.78787 27.4548 7.04671 28.3162 7.88809C29.1776 8.72948 28.9371 9.65092 28.6768 10.292C28.8971 10.5523 29.418 11.2937 29.0974 12.175C29.0373 12.3753 28.5966 12.3753 28.276 12.8962C29.0773 12.4353 29.5782 12.5556 29.7584 13.1365C30.0389 14.0379 29.4179 15.1197 28.877 15.7207C28.877 15.7006 28.857 15.6806 28.857 15.6606C28.7769 15.9612 28.6767 16.542 28.0758 17.1831C27.7752 17.5036 27.5348 17.4636 27.1943 17.3834C26.7937 17.2832 26.6534 17.1028 26.0925 16.8025C25.772 16.6222 25.9523 16.4018 25.9523 16.2215C25.9523 16.1815 25.9923 16.1213 26.0525 16.0412C26.0925 15.941 26.2127 15.7809 26.393 15.6005C26.393 15.6005 26.6534 15.24 27.0341 15.2599C27.4148 15.28 27.8153 15.1999 27.9156 15.0997C27.9156 14.3986 27.1143 14.3785 27.3947 13.1766C27.4148 13.1165 27.515 13.0163 27.8354 12.9762C27.3546 12.876 27.1343 12.856 26.7937 12.5355C26.5533 12.3152 26.373 12.0347 26.3128 11.6742C26.1928 11.0532 25.9924 7.78787 25.9924 7.78787Z" fill="#EFEFEF"/>
<path d="M21.7655 6.5258C21.6453 6.36549 21.0243 5.56423 19.8424 5.2437C19.5018 5.14349 19.2815 5.42398 18.941 5.62432C18.8408 5.56423 18.4001 5.36389 18.1597 5.50404C17.9193 5.64419 17.7591 5.78453 17.5186 5.88465C17.3984 5.82456 17.0779 5.82456 16.8175 5.92468C16.5571 6.00484 16.1564 6.18511 15.7758 6.70598C15.5354 7.56743 20.0226 6.92628 20.0226 6.92628L21.7655 6.5258Z" fill="black"/>
<path d="M21.8056 6.52585C21.1645 6.30544 21.2647 5.56427 19.8424 5.44409C19.5619 5.42403 19.3816 5.64433 19.1812 5.78458C19.2815 5.8848 19.3816 6.04501 19.4417 6.20522C19.2614 6.00498 18.9409 5.74445 18.6203 5.68436C18.3198 5.62437 18.1195 5.84467 17.7989 6.00498C17.8589 6.06498 17.9191 6.1652 17.9992 6.28548C17.7187 6.1052 17.5184 6.04511 17.1378 6.18526C16.8774 6.26532 16.3766 6.48572 15.996 7.02664C15.7556 7.88809 20.0426 6.92643 20.0426 6.92643L21.8056 6.52585Z" fill="#88CE02"/>
<path d="M25.5717 6.84634C25.5717 6.84634 25.5717 6.62594 25.5517 6.4257C25.5517 6.38567 25.3915 6.28545 25.3915 6.24542L25.3514 6.20529C25.3514 6.20529 25.672 6.02502 25.9123 6.12524C26.1727 6.20529 26.3129 6.54588 26.3129 6.54588C26.7737 6.38567 26.8137 6.56594 27.0341 6.80631C27.5149 6.70609 27.5749 6.88637 27.8755 7.32717C27.8755 7.32717 27.5149 7.26708 26.8138 7.38717C26.1326 7.48729 25.5717 6.82628 25.5717 6.84634Z" fill="black"/>
<path d="M25.4916 6.74612C25.4916 6.74612 25.6118 6.6459 25.5717 6.62584C25.792 6.50566 26.0925 6.36551 26.2328 6.74612C26.6935 6.58581 26.7536 6.80621 26.9739 7.04668C27.5348 6.78625 27.5748 7.10667 27.615 7.24692C27.4347 7.24692 27.1744 7.26698 26.8137 7.30701C26.1326 7.40723 25.4715 6.72606 25.4916 6.74612Z" fill="#88CE02"/>
<path d="M18.6806 6.2453C18.6806 6.2453 19.8224 6.64588 20.784 6.58579C21.7455 6.50573 23.3882 6.42558 24.2696 6.94644C24.2696 6.94644 25.1711 6.62582 26.0125 6.84622C26.8539 7.06653 28.3964 8.50893 27.9357 10.0314C27.8956 10.1316 27.6351 10.2918 27.3347 10.392C27.3347 10.392 27.495 11.0731 27.2145 11.634C26.934 12.1749 26.313 13.2167 26.293 14.659C26.273 14.8993 26.233 15.4001 26.1928 15.6405C24.6302 15.5805 22.2264 14.9995 19.8625 15.0396C19.8825 14.7792 19.9026 14.6189 19.9226 14.3585H19.9826C19.8624 13.6974 19.8224 13.3568 19.7021 12.856C18.9409 12.3753 18.1395 11.8144 17.4585 10.7526C16.7974 9.6908 18.6806 6.2453 18.6806 6.2453Z" fill="black"/>
<path d="M26.4132 17.0629C26.4132 17.0629 27.6552 21.5102 26.1928 23.3733C26.1928 23.3733 26.4132 24.2346 25.9124 25.1562C25.8322 25.5567 25.732 25.9174 25.672 26.318C25.4116 27.9807 24.9708 28.6818 24.8506 31.3461L23.6485 31.3262C23.6485 31.3262 23.5083 29.403 23.0876 28.3814C22.8474 27.8005 21.9057 27.0191 21.9459 26.2379C21.9859 25.6369 22.1061 25.1361 23.1279 24.3347C23.2079 23.1729 22.046 22.071 22.2264 17.744L26.4132 17.0629Z" fill="black"/>
<path d="M26.0526 16.8826C26.3731 18.9259 27.1143 21.9509 25.7721 23.4332C25.8321 23.7137 25.8722 24.1144 25.7921 24.575C25.752 24.8154 25.6719 25.0758 25.5717 25.3562C25.3714 25.8371 25.2913 26.5382 25.2312 26.9588C24.9707 28.6216 24.9707 28.7018 24.8505 31.3661L23.6485 31.346C23.6485 31.346 23.5083 29.4229 23.0876 28.4013C22.8473 27.8204 22.3464 27.3196 22.3064 26.5383C22.2664 25.9374 22.687 24.7354 23.6887 24.7755C23.6286 22.3515 22.5068 22.8323 22.2063 17.784L26.0526 16.8826Z" fill="#EFEFEF"/>
<path d="M18.6805 6.2453C18.6805 6.2453 19.1212 6.38555 19.602 6.42558C20.0828 6.46561 20.6037 6.42558 21.0644 6.40551C22.0259 6.32546 23.3882 6.22524 24.2896 6.7461C24.2896 6.7461 24.7904 6.58579 25.3314 6.62582C25.5717 6.64588 25.8122 6.84622 26.0926 6.92638C26.974 7.14668 27.8154 8.60905 27.4347 9.93127C27.3947 10.0315 27.1142 9.93127 26.7936 10.0315C26.8536 10.312 26.8939 10.953 26.5732 11.6341C26.2328 12.3153 25.792 13.1967 25.8721 14.8795C23.7687 14.7792 22.8272 14.6391 20.7437 14.5389C20.5635 13.7976 20.4432 13.0564 20.4232 12.6758C20.7037 12.5356 20.8638 12.4155 21.0843 12.175C20.4834 12.2753 20.2429 12.2351 19.8823 12.0348C19.5217 11.8344 18.8807 11.1934 18.5602 10.7728C18.5201 10.7326 18.2998 11.3936 17.799 11.4138C17.6187 11.1534 18.3799 10.4121 18.2396 10.1317C17.7389 9.10995 18.6805 6.2453 18.6805 6.2453Z" fill="#EFEFEF"/>
<path d="M26.2127 15.2199C26.2127 15.2199 26.2527 15.9411 26.2527 16.1214C26.2527 16.3217 26.413 16.9226 26.433 17.2031C26.2127 17.5837 25.2511 18.4452 23.5083 18.7657C21.7855 19.1263 19.5018 16.4219 19.5018 16.4219C19.5619 16.1615 19.7622 15.4002 19.9024 14.9996C19.9225 14.9596 19.9625 14.8593 19.9625 14.8193C20.1429 14.5589 26.2127 15.2199 26.2127 15.2199Z" fill="black"/>
<path d="M25.7721 15.2801C25.7721 15.7809 25.8522 16.1415 25.9124 16.4621C26.0125 17.043 26.1727 17.4236 26.1727 17.8042C26.1727 18.9661 24.6502 18.7657 23.368 18.8058C21.6452 19.1665 20.1829 16.4621 20.1829 16.4621C20.303 16.0013 20.3832 15.4805 20.5635 15.0397C20.5834 14.7993 20.6236 14.4989 20.6435 14.3586C23.0875 14.3586 24.8103 14.4989 25.812 14.5989C25.8522 14.8193 25.8121 15.1999 25.7721 15.2801Z" fill="#EFEFEF"/>
<path d="M23.8489 17.8642C23.8489 17.8642 22.7872 15.5004 19.6019 16.2016C18.8408 18.3451 17.819 20.8091 18.4801 23.4734C17.819 24.3749 17.0578 24.8758 17.0578 26.5384C17.0578 28.2011 17.1379 28.4816 17.1379 28.4816L19.4817 28.6019C19.4817 28.6019 20.2429 27.6204 20.5434 26.5586C20.6236 26.258 20.7037 25.7172 20.6436 25.0962C20.7237 24.976 21.0643 24.6956 21.1044 24.1547C21.1044 24.1547 22.2462 23.5538 22.9073 22.0914C23.5284 20.769 23.3681 19.6271 23.8489 17.8642Z" fill="black"/>
<path d="M23.8488 17.8642C23.7889 17.6439 22.9875 15.4804 20.0226 16.1213C18.2799 20.769 18.9209 22.6921 19.1812 23.5334C17.9993 25.0358 17.4584 25.3563 17.6989 28.4014H19.2615C19.9826 27.2595 20.1429 26.8388 20.1829 25.3364C20.1829 25.2763 19.9626 25.4566 19.8023 25.6569C19.9226 25.0359 20.2631 24.9157 20.5235 24.5351C20.6437 24.3748 20.7438 24.1344 20.7438 23.8139C22.1461 22.8724 22.667 21.6904 22.9674 20.4684C23.2079 19.6271 23.4883 18.2448 23.8488 17.8642Z" fill="#EFEFEF"/>
<path d="M18.9009 14.639C18.9009 14.639 19.4418 14.659 19.9226 14.8193C20.3834 14.9795 20.3834 15.0796 20.5637 15.2801C20.7439 15.4805 21.1846 15.7809 21.1046 16.0813C21.0645 16.2417 20.9643 16.2817 20.8241 16.4219C20.764 16.482 20.3232 16.9628 20.2231 17.0229C20.163 17.0629 20.0828 17.1231 20.0227 17.1631C19.9627 17.2031 19.7825 17.3234 19.7223 17.3634C19.5219 17.4637 19.3817 17.5237 19.1614 17.5037C19.1614 17.5037 18.6606 17.4836 18.34 17.1431C18.34 17.1431 18.2999 16.9828 18.3801 16.9028C18.3801 16.9028 17.9593 16.5421 17.8392 16.3017C17.7189 16.0615 17.7189 15.7209 17.7991 15.5406C17.8392 15.3601 18.6204 14.8593 18.9009 14.639Z" fill="black"/>
<path d="M19.4017 34.1308L19.3417 34.6317C19.3417 34.6317 19.1614 34.852 17.8192 34.832C16.4569 34.8119 16.0964 34.3913 15.9762 34.1709L15.8961 33.65C15.8961 33.65 16.1566 33.2694 16.2167 33.2694C16.6574 33.3094 18.1599 33.9105 19.2016 34.0707C19.3015 34.0707 19.3215 34.1107 19.4017 34.1308Z" fill="black"/>
<path d="M22.3064 33.1091C22.3064 33.3294 22.2864 33.3294 22.2864 33.5498C22.5267 33.7301 23.1279 33.8303 24.2696 33.8101C25.9323 33.7701 27.4748 34.311 29.3579 33.9904L29.3779 33.6299L29.1976 33.6099L22.5267 33.069L22.3064 33.1091Z" fill="black"/>
<path d="M23.7688 33.8102C23.9291 33.8102 24.0893 33.8102 24.2696 33.8102C25.3514 33.7702 26.3731 34.0105 27.4748 34.0706C28.0558 34.0506 28.777 33.9103 28.7169 33.4897L23.0276 33.0089C22.687 33.3895 22.9474 33.71 23.7688 33.8102Z" fill="black"/>
<path d="M17.2382 25.3765C17.4184 25.4967 18.6404 26.2179 20.6237 26.1177C20.5835 26.4983 20.6036 27.2396 19.7222 28.5416C19.2815 29.1827 18.9008 30.3046 18.8207 31.7269C18.8408 32.0474 19.0211 32.3278 18.7807 32.7486C18.8607 33.0089 19.1813 33.5298 19.3416 33.8503C19.5018 34.1709 19.5819 34.5315 18.5202 34.5515C17.4384 34.5715 15.6955 34.4513 15.936 33.61C16.0563 33.1693 16.3968 32.7085 16.4369 32.5282C16.4769 32.3479 16.4769 31.8071 16.8174 31.4464C17.118 30.4448 17.0178 29.4832 16.9578 28.5818C16.8575 27.6402 16.8375 26.1378 17.2382 25.3765Z" fill="black"/>
<path d="M19.1012 9.04985C20.5236 7.14668 19.3215 5.62431 17.0379 6.08498C16.1164 6.26526 15.1949 6.90641 15.1347 8.06822C14.8343 8.10824 14.1532 8.14827 13.8126 9.39034C13.5523 10.3519 13.412 10.5322 12.9512 11.0129C12.6507 11.3535 12.9712 12.0546 13.1915 12.5555C13.9328 14.2783 16.2165 14.4386 17.759 15.7407C18.2799 15.6005 18.8207 15.0196 18.981 14.639C17.6789 13.0964 17.9593 12.4955 17.4384 11.6942C17.9994 11.4938 19.2815 10.7126 19.1012 9.04985Z" fill="black"/>
<path d="M18.8207 8.92972C18.9008 8.80944 19.041 8.54911 19.1012 8.44889C19.1213 8.42882 19.3416 8.80944 19.3616 8.78948C19.9025 7.90796 20.0427 6.62587 19.4216 6.50569C19.2814 6.48562 19.021 6.42563 18.8006 6.34537C18.4001 6.20513 18.0395 6.20513 17.3984 6.32541C16.517 6.48562 15.6355 7.12667 15.6355 8.04821C15.6355 8.1083 16.2564 8.28858 16.4368 9.02984C16.1362 8.6091 15.6154 8.14833 14.9944 8.54901C14.3333 8.96965 14.6739 9.93122 13.7925 10.9328C13.4919 11.2734 13.532 11.6741 13.8524 12.4753C14.3733 13.7375 16.8374 14.4185 18.1796 15.6205C18.5001 15.4802 18.7204 15.1597 18.8807 14.9193C17.9792 13.9778 17.6186 13.0963 17.3582 12.4553C17.0377 11.7141 16.6771 11.2935 15.9759 10.7324C16.3366 10.8726 16.6171 11.0129 16.7772 11.1331C16.9575 11.2532 17.2179 11.2733 17.4584 11.1932C18.3199 10.8929 18.7807 9.69086 18.8207 8.92972Z" fill="#EFEFEF"/>
<path d="M27.5349 9.25021C27.4748 10.0114 26.9139 9.63083 26.6135 9.49058C26.0125 9.23015 25.4114 9.04987 24.7103 9.04987C24.0092 9.04987 23.1077 9.10996 22.3265 9.3103C21.2447 9.61076 20.9241 9.5908 20.4434 9.35033C19.9626 9.0899 19.1213 8.44885 19.1213 8.44885C19.1213 8.44885 19.1013 8.64919 19.3016 8.90962C19.562 9.23015 20.143 9.63083 20.9242 9.89116C21.3048 10.0114 21.6054 9.93119 21.946 9.85113C23.7289 9.41042 25.6119 9.33027 27.1944 10.2918C27.2746 10.3319 27.5551 10.2117 27.6753 10.0314C27.8354 9.77107 27.5349 9.25021 27.5349 9.25021Z" fill="black"/>
<path d="M18.4201 16.8826C18.5803 16.9828 18.7807 17.0429 19.001 17.2232C19.001 17.2232 18.8207 17.2232 18.7407 17.1431C18.6404 17.083 18.4401 16.9027 18.4201 16.8826Z" fill="#001423"/>
<path d="M24.2095 0.996746C24.1494 0.81647 23.7086 0.49585 22.6871 0.49585C21.5852 0.49585 21.2647 0.836435 21.2447 1.01671C21.2447 1.0768 21.1646 1.71795 21.1445 1.97828C21.1445 1.97828 21.1445 2.29881 21.1645 2.77954C21.1846 3.10006 21.2647 3.28034 21.3047 3.70108C21.3448 4.14169 21.4651 4.42219 21.6854 4.78284C21.7856 4.84283 21.8656 4.90302 21.9659 4.92308C22.3665 5.00314 23.0677 5.0232 23.4483 4.92308C23.6686 4.86299 23.9491 4.48237 24.0092 4.14179C24.0892 3.72114 24.1694 3.42059 24.1895 3.16026C24.2295 2.89992 24.2495 2.31887 24.2695 2.15856C24.3297 1.71795 24.2295 1.03677 24.2095 0.996746Z" fill="#EFEFEF"/>
<path d="M22.1061 25.7571C22.1061 25.7571 23.1679 26.2179 25.7922 25.8172C25.7922 25.8172 25.051 29.5433 25.3916 31.4063C25.3916 31.4063 25.7321 31.8871 28.2562 32.8086C28.2562 32.8086 29.378 33.089 29.338 33.65C29.338 33.65 29.378 33.7702 28.0159 33.7301C26.6537 33.69 25.3715 33.4496 24.47 33.4496C23.5686 33.4496 22.607 33.4896 22.4468 33.2293C22.2665 32.9889 22.4868 32.3678 22.7472 32.0072C23.0278 31.6267 22.9476 31.3461 22.9276 30.6651C22.8673 28.8822 21.5051 27.0392 22.1061 25.7571Z" fill="black"/>
<path d="M21.8857 26.0977C21.7454 26.2981 21.9056 27.0592 22.106 27.8005C22.3063 28.5416 22.7471 28.9824 22.8473 30.2043C22.9474 31.4063 22.9674 31.5666 22.6269 32.2676C22.2863 32.9687 22.1861 33.6098 23.368 33.6299C24.5499 33.6499 25.191 33.6098 26.393 33.7902C27.595 33.9704 28.0157 34.0305 28.6768 33.9304C29.3379 33.8303 29.478 33.6098 29.1976 33.4096C28.9171 33.2092 27.7552 32.9889 27.2544 32.5881C26.7736 32.2276 25.4114 31.6266 25.3915 31.4664C25.3314 30.9254 25.3113 28.9623 25.4114 28.3212C25.5117 27.6801 25.6518 26.7586 25.6919 26.5183C25.7321 26.2779 25.9323 26.0374 25.5917 26.1176C25.2512 26.1976 23.9691 26.378 23.0076 26.3179C22.046 26.2579 21.9459 26.0375 21.8857 26.0977Z" fill="#88CE02"/>
<path opacity="0.3" d="M22.5669 32.2878C22.9074 32.448 23.4082 32.5683 23.7889 32.5683C23.7889 32.5683 23.6485 33.2294 23.8689 33.63C24.0892 34.0306 22.2663 33.7903 22.2663 33.7903L22.1862 32.3679L22.5669 32.2878Z" fill="black"/>
<path opacity="0.3" d="M27.8755 34.0105C28.196 33.9103 28.4164 33.5498 28.156 33.2093C27.8755 32.8687 27.6352 32.8086 27.9957 32.7886C28.3564 32.7686 29.6785 33.5698 29.6785 33.5698L28.9973 34.1908L27.8755 34.0105Z" fill="black"/>
<path opacity="0.3" d="M21.8256 26.8789C22.2864 27.0392 22.9875 27.0793 23.5885 27.0592C24.1894 27.0392 25.0909 26.959 25.672 26.7587C26.2528 26.5584 26.0124 26.9791 26.0124 26.9791L25.6919 27.2796C25.6919 27.2796 24.9307 27.5801 23.6887 27.5601C22.2264 27.54 21.7856 27.3798 21.7856 27.3798L21.8256 26.8789Z" fill="black"/>
<path opacity="0.3" d="M21.8656 27.8806C22.3265 28.0409 23.0275 28.0809 23.6286 28.0608C24.2295 28.0409 25.0308 28.0409 25.6118 27.8205C25.8522 27.7404 25.712 28.0809 25.712 28.0809L25.6118 28.2612C25.6118 28.2612 24.8305 28.5417 23.6085 28.5215C22.1461 28.5016 21.8857 28.3813 21.8857 28.3813L21.8656 27.8806Z" fill="black"/>
<path d="M20.5435 13.8378C20.5435 13.978 22.1061 14.7592 22.9675 14.9195C23.8289 15.0797 25.6319 14.9195 25.9123 14.8594L25.8721 15.1399C25.8721 15.1399 23.7287 15.4604 22.086 15.0197C20.4433 14.579 20.6237 14.4788 20.6237 14.4788L20.5435 13.8378Z" fill="black"/>
<path d="M17.198 30.9255C17.4384 31.0458 18.2998 31.2661 18.8607 31.1459C18.9408 31.1259 18.8607 29.7636 19.0811 29.1426C19.4017 28.2812 19.9225 27.58 20.1628 26.0577C19.3214 25.9775 18.3599 25.7571 17.859 25.5968C17.2181 27.5601 17.4385 29.2427 17.198 30.9255Z" fill="#EFEFEF"/>
<path d="M18.5403 32.1877C18.6805 32.2277 18.7807 32.3879 18.8208 32.2879C18.9008 32.1075 18.6805 31.767 18.6605 31.5267C18.6605 31.5066 18.6605 31.5267 18.6605 31.5066C18.4802 31.3464 17.2582 31.3263 17.3384 31.4064C17.1981 31.6668 16.9778 31.6268 16.8977 32.1476C16.8577 32.408 17.1782 32.1877 17.4786 32.1676C16.9378 32.5282 16.3168 32.989 16.2166 33.3896C16.0964 33.9505 16.2967 34.1108 16.8977 34.4114C17.4186 34.5315 18.0396 34.5516 18.5203 34.5316C19.0613 34.4313 19.1615 34.171 19.0012 33.8103C18.7606 33.2694 18.6004 32.5683 18.5403 32.1877Z" fill="#EFEFEF"/>
<path d="M18.7606 6.16516C19.4217 6.54578 20.3433 6.44566 20.6838 6.42559C20.7639 6.42559 21.5653 6.28535 21.6053 6.30531C21.6854 6.32538 21.6854 6.38547 21.6854 6.38547C21.6854 6.38547 21.3849 6.54568 20.7038 6.58571C20.0628 6.62574 19.3015 6.58571 18.8809 6.38547C18.38 6.16516 18.7606 6.16516 18.7606 6.16516Z" fill="black"/>
<path d="M25.5717 6.54581C25.6919 6.62587 26.4732 6.92643 26.8138 7.28698C27.1143 7.6076 26.9541 7.58754 26.8939 7.50738C26.8138 7.40716 26.1927 6.98652 25.9524 6.8864C25.712 6.78628 25.4114 6.6059 25.4114 6.56587C25.4114 6.52585 25.5717 6.54581 25.5717 6.54581Z" fill="black"/>
<path d="M18.6604 14.8593C19.2414 14.8193 19.8424 14.9596 20.223 15.3601C20.4233 15.5605 20.7439 15.7808 20.7038 15.9811C20.7038 16.0412 20.5835 16.2015 20.4835 16.3217C20.4234 16.4018 20.2432 16.582 20.183 16.6422C20.1029 16.7023 19.8224 16.9227 19.7623 16.9628C19.7022 17.0029 19.6221 17.1031 19.562 17.1231C19.3617 17.2233 19.1413 17.1431 18.941 17.043C18.7408 16.9428 18.9811 16.9227 18.7607 16.7625C18.2199 16.3819 17.9193 16.1214 18.1397 15.3802C18.1597 15.24 18.38 15.0796 18.6604 14.8593Z" fill="#EFEFEF"/>
<path opacity="0.4" d="M13.5522 10.2719C11.7492 10.9931 7.16168 13.2769 5.85962 13.978C6.94137 14.6591 7.44217 16.3018 7.60248 17.9645C7.62245 18.1248 7.64251 18.265 7.66258 18.4252C7.68254 18.5655 7.7026 18.6656 7.72257 18.7258C7.72257 18.7459 7.72257 18.7859 7.74263 18.8059C8.92461 15.5807 13.1514 12.1751 13.3117 11.9147C13.3918 11.7945 13.2115 11.2736 13.492 10.7729C13.8526 10.1317 14.5539 9.85117 13.5522 10.2719Z" fill="black"/>
<path opacity="0.4" d="M17.8392 25.3966C18.7606 23.5536 18.7807 21.7907 18.7606 19.7273C18.7606 18.8658 19.3816 17.6438 19.0612 17.9844C17.8591 19.3265 14.8343 21.8508 12.6507 21.9909C15.7157 21.8908 16.9176 23.4333 17.8392 25.3966Z" fill="black"/>
<path d="M4.09671 15.6807C5.23856 14.8593 11.1482 11.7143 12.5706 11.2735C13.9928 10.8127 13.5521 10.2718 13.5521 10.2718C13.5521 10.2718 7.78268 12.7558 4.33708 14.8994" fill="black"/>
<path opacity="0.4" d="M20.9241 9.89128C20.4633 9.71101 20.1028 10.2519 20.223 10.7728C20.3433 11.2937 21.425 11.8745 21.3648 13.7777C21.3248 15.3403 20.9842 15.9812 20.9842 15.9812L20.223 15.0198C20.223 15.0198 20.1028 12.8561 19.8424 12.5356C19.582 12.2151 18.7606 11.6341 18.4401 11.3337C18.1196 11.0331 18.8006 10.6325 18.7606 10.0716C18.7206 9.53073 19.1012 8.44897 19.1012 8.44897L20.9241 9.89128Z" fill="black"/>
<path opacity="0.4" d="M23.7087 18.4251C23.6687 19.9275 24.0093 22.1512 24.1494 23.213C24.2897 24.2747 24.4699 24.3548 24.1494 24.8357C23.8289 25.2964 23.4083 26.0577 23.4083 26.0577L22.0259 25.9374C22.0259 25.9374 23.1278 24.5351 23.1878 24.2747C23.2478 24.0144 22.6269 22.0311 22.6269 22.0311L23.7087 18.4251Z" fill="black"/>
<path opacity="0.4" d="M21.0444 4.40238C21.3249 5.02326 21.6654 5.30376 22.2062 5.48413C22.5267 5.60431 23.7888 5.76463 24.2897 5.20364C24.51 4.9432 24.3697 4.24207 24.3697 4.24207L23.2279 5.16351L21.6854 4.88311L21.5051 4.42234L21.0444 4.40238Z" fill="black"/>
<path d="M21.1645 5.78455C21.6853 6.12513 22.9875 6.44566 23.3481 6.50575C23.7086 6.58581 24.2896 6.12513 24.5701 6.00495C24.8706 5.8647 25.3915 5.78455 25.9924 6.32547C26.0525 6.38556 25.8522 6.646 25.8522 6.646C25.8321 6.62593 25.7119 6.62593 25.5516 6.54578C25.3914 6.46572 25.2511 6.40553 25.0108 6.42559C24.0091 6.54578 23.8489 6.88636 22.9674 6.68593C22.086 6.48549 21.8656 6.32537 21.0043 6.3654" fill="#88CE02"/>
<path d="M21.1645 5.78455C21.6853 6.12513 22.9875 6.44566 23.3481 6.50575C23.7086 6.58581 24.2896 6.12513 24.5701 6.00495C24.8706 5.8647 25.3915 5.78455 25.9924 6.32547C26.0525 6.38556 25.8522 6.646 25.8522 6.646C25.8321 6.62593 25.7119 6.62593 25.5516 6.54578C25.3914 6.46572 25.2511 6.40553 25.0108 6.42559C24.0091 6.54578 23.8489 6.88636 22.9674 6.68593C22.086 6.48549 21.8656 6.32537 21.0043 6.3654" stroke="black" stroke-width="1.586" stroke-miterlimit="10" stroke-linejoin="round"/>
<path d="M20.9842 5.84467C21.6453 6.12516 22.9274 6.42562 23.288 6.50578C23.6485 6.58593 24.2295 6.22528 24.51 6.04501C25.0109 5.72448 25.6518 5.98491 25.9524 6.3255C26.1526 6.5458 26.2329 6.68605 26.2329 6.74615C26.2329 6.8262 25.9925 6.74615 25.9925 6.74615C25.8522 6.68605 25.6919 6.66609 25.5718 6.58583C25.4115 6.50578 25.2512 6.38559 25.0109 6.40556C24.0093 6.52584 23.8089 6.86633 22.9476 6.66599C22.0862 6.46565 21.8658 6.28537 20.9444 6.34537" fill="#88CE02"/>
<path d="M17.8792 24.5551C17.8392 24.5151 17.9192 24.4751 17.8792 24.4751C17.6189 24.4751 17.2582 24.2747 17.0578 23.9942C16.1964 22.7523 14.9343 21.9309 12.6506 21.991C9.22497 22.0711 7.86272 20.6689 7.60239 17.9845C7.46214 16.5222 7.06146 15.0998 6.24014 14.2985L5.75931 14.599C6.68075 15.4003 6.98131 16.7024 7.18165 18.4853C7.50217 21.1697 9.66568 22.4118 12.1898 22.4518C14.8141 22.4918 15.7556 23.0327 16.7372 24.355C17.0577 24.7756 17.4183 24.9159 17.6987 24.9759L17.8792 24.5551Z" fill="black"/>
<path opacity="0.4" d="M27.1744 11.6742C27.2345 11.9747 27.3947 12.5556 27.7152 12.836C27.8556 12.9763 27.8755 13.0163 27.7553 13.0163C27.6351 13.0163 26.7536 12.9763 26.7536 12.9763L26.5133 12.5556L27.1744 11.6742Z" fill="black"/>
</svg>
