<svg width="132" height="36" viewBox="0 0 132 36" fill="none" xmlns="http://www.w3.org/2000/svg">
<path d="M7.18924 17.1427C8.32512 9.75801 24.8765 3.66696 46.4582 3.55915C61.8196 3.50525 73.3947 6.84724 77.3432 11.5907C75.3419 5.44576 61.495 -0.106262 42.3474 0.00154449C20.333 0.163254 1.2394 6.52382 0.0494315 14.9866C-0.707821 20.5386 7.29742 25.2821 19.7921 27.6C11.5164 25.2282 6.54016 21.455 7.18924 17.1427Z" fill="#ABABAB"/>
<path d="M66.3091 31.8592V33.0989H67.4991V33.3145H66.3091V35.0394H66.0928V31.6974H67.4991V31.9131H66.3091V31.8592Z" fill="#ABABAB"/>
<path d="M72.2591 33.3676C72.2591 34.3379 71.3937 35.0925 70.4201 35.0925C69.4465 35.0925 68.5811 34.3379 68.5811 33.3676C68.5811 32.3973 69.3924 31.6427 70.4201 31.6427C71.3937 31.6427 72.2591 32.3973 72.2591 33.3676ZM68.7974 33.3676C68.7974 34.1761 69.5006 34.8769 70.4201 34.8769C71.2855 34.8769 72.0428 34.1761 72.0428 33.3676C72.0428 32.5591 71.2855 31.8583 70.4201 31.8583C69.5006 31.8044 68.7974 32.5052 68.7974 33.3676Z" fill="#ABABAB"/>
<path d="M76.8563 33.3676C76.8563 34.3379 75.9909 35.0925 75.0173 35.0925C74.0437 35.0925 73.1782 34.3379 73.1782 33.3676C73.1782 32.3973 73.9896 31.6427 75.0173 31.6427C75.9909 31.6427 76.8563 32.3973 76.8563 33.3676ZM73.3946 33.3676C73.3946 34.1761 74.0977 34.8769 75.0173 34.8769C75.8827 34.8769 76.6399 34.1761 76.6399 33.3676C76.6399 32.5591 75.8827 31.8583 75.0173 31.8583C74.0977 31.8044 73.3946 32.5052 73.3946 33.3676Z" fill="#ABABAB"/>
<path d="M77.9926 31.6427H78.6416C79.1825 31.6427 79.5612 31.6966 79.9398 32.0739C80.3184 32.3973 80.4807 32.8286 80.4807 33.3137C80.4807 33.7988 80.3184 34.23 79.9398 34.5535C79.5612 34.9308 79.1284 34.9847 78.5875 34.9847H77.9385V31.6427H77.9926ZM78.6416 34.823C79.1284 34.823 79.5071 34.7152 79.8316 34.3918C80.1561 34.1222 80.3184 33.7449 80.3184 33.3137C80.3184 32.8825 80.1561 32.5051 79.8316 32.1817C79.5071 31.9122 79.1284 31.8044 78.6957 31.8044H78.2089V34.823H78.6416Z" fill="#ABABAB"/>
<path d="M83.9424 35.0386H83.7261V31.6966H84.3751C84.6456 31.6966 84.916 31.6966 85.1324 31.9122C85.3488 32.0739 85.4569 32.3434 85.4569 32.6129C85.4569 32.8286 85.3488 33.0981 85.1865 33.2598C84.9701 33.4215 84.6997 33.4754 84.3751 33.4754H83.9965V35.0386H83.9424ZM84.3211 33.2598C84.5374 33.2598 84.7538 33.2598 84.916 33.0981C85.0783 32.9903 85.1324 32.7747 85.1324 32.6129C85.1324 32.3973 85.0242 32.1817 84.862 32.0739C84.6997 31.9661 84.4833 31.9661 84.267 31.9661H83.8883V33.3137H84.3211V33.2598Z" fill="#ABABAB"/>
<path d="M88.2694 35.0386H87.999L86.8631 33.4215H86.7549V35.0386H86.5386V31.6966H86.9713C87.2417 31.6966 87.5663 31.6966 87.7826 31.8583C88.0531 32.02 88.1613 32.2895 88.1613 32.559C88.1613 33.152 87.7285 33.4215 87.1336 33.4215L88.2694 35.0386ZM87.0254 33.2598C87.2417 33.2598 87.4581 33.2598 87.6204 33.0981C87.7826 32.9903 87.8908 32.7747 87.8908 32.559C87.8908 32.2895 87.7826 32.0739 87.5122 31.9661C87.3499 31.8583 87.0795 31.9122 86.8631 31.9122H86.7008V33.2598H87.0254Z" fill="#ABABAB"/>
<path d="M92.8671 33.3676C92.8671 34.3379 92.0016 35.0925 91.028 35.0925C90.0544 35.0925 89.189 34.3379 89.189 33.3676C89.189 32.3973 90.0003 31.6427 91.028 31.6427C92.0016 31.6427 92.8671 32.3973 92.8671 33.3676ZM89.4053 33.3676C89.4053 34.1761 90.1085 34.8769 91.028 34.8769C91.8934 34.8769 92.6507 34.1761 92.6507 33.3676C92.6507 32.5591 91.8934 31.8583 91.028 31.8583C90.1085 31.8044 89.4053 32.5052 89.4053 33.3676Z" fill="#ABABAB"/>
<path d="M94.0028 31.6427H94.6519C95.1928 31.6427 95.5714 31.6966 95.95 32.0739C96.3287 32.3973 96.4909 32.8286 96.4909 33.3137C96.4909 33.7988 96.3287 34.23 95.95 34.5535C95.5714 34.9308 95.1387 34.9847 94.5978 34.9847H93.9487V31.6427H94.0028ZM94.6519 34.823C95.1387 34.823 95.5173 34.7152 95.8419 34.3918C96.1664 34.1222 96.3287 33.7449 96.3287 33.3137C96.3287 32.8825 96.1664 32.5051 95.8419 32.1817C95.5173 31.9122 95.1387 31.8044 94.706 31.8044H94.2733V34.823H94.6519Z" fill="#ABABAB"/>
<path d="M99.7905 31.6427H100.007V33.7449C100.007 34.0683 100.007 34.3918 99.7905 34.6613C99.5742 34.9308 99.1956 35.0386 98.8169 35.0386C98.4383 35.0386 98.1138 34.9308 97.8433 34.6613C97.627 34.3918 97.627 34.0683 97.627 33.7449V31.6427H97.8433V33.691C97.8433 34.0144 97.8433 34.3379 98.0056 34.5535C98.1679 34.7691 98.5465 34.8769 98.8169 34.8769C99.0874 34.8769 99.4119 34.7691 99.6283 34.5535C99.7905 34.3379 99.7905 34.0144 99.7905 33.691V31.6427Z" fill="#ABABAB"/>
<path d="M104.172 32.3435C103.901 32.02 103.414 31.8044 102.982 31.8044C102.116 31.8044 101.359 32.5052 101.359 33.3676C101.359 33.7449 101.521 34.1223 101.846 34.3918C102.116 34.6613 102.549 34.8769 102.982 34.8769C103.414 34.8769 103.901 34.6613 104.172 34.3379V34.6074C103.847 34.8769 103.414 35.0386 102.982 35.0386C102.008 35.0386 101.143 34.284 101.143 33.3137C101.143 32.3434 102.008 31.5888 102.982 31.5888C103.414 31.5888 103.847 31.7505 104.172 32.02V32.3435Z" fill="#ABABAB"/>
<path d="M106.227 35.0386H106.011V31.8583H105.091V31.6427H107.147V31.8583H106.227V35.0386Z" fill="#ABABAB"/>
<path d="M109.743 32.2356C109.581 32.02 109.364 31.8583 109.04 31.8583C108.661 31.8583 108.391 32.1278 108.391 32.5052C108.391 32.8825 108.769 32.9903 109.04 33.152L109.743 33.4754C110.013 33.6371 110.122 33.8527 110.122 34.1223C110.122 34.6613 109.581 35.0925 108.986 35.0925C108.499 35.0925 108.12 34.823 107.958 34.3918L108.174 34.284C108.337 34.6613 108.607 34.8769 109.04 34.8769C109.527 34.8769 109.905 34.5535 109.905 34.0684C109.905 33.691 109.473 33.5293 109.202 33.3676L108.553 33.0442C108.337 32.8825 108.174 32.7208 108.174 32.4513C108.174 31.9661 108.553 31.5888 109.094 31.5888C109.473 31.5888 109.797 31.7505 109.959 32.0739L109.743 32.2356Z" fill="#ABABAB"/>
<path d="M116.667 33.4215C116.667 33.8527 116.612 34.2301 116.288 34.5535C115.963 34.8769 115.423 35.0925 114.936 35.0925C113.962 35.0925 113.097 34.284 113.097 33.3676C113.097 32.3973 113.908 31.6427 114.936 31.6427C115.585 31.6427 116.126 31.9661 116.45 32.4512L116.288 32.613C115.963 32.1817 115.477 31.9122 114.936 31.9122C114.07 31.9122 113.313 32.613 113.313 33.4215C113.313 34.2301 114.016 34.9308 114.936 34.9308C115.314 34.9308 115.693 34.7691 115.963 34.5535C116.288 34.284 116.396 34.0144 116.396 33.6371H115.098V33.4215H116.667Z" fill="#ABABAB"/>
<path d="M119.533 35.0386H119.263L118.127 33.4215H118.019V35.0386H117.802V31.6966H118.235C118.505 31.6966 118.83 31.6966 119.046 31.8583C119.317 32.02 119.425 32.2895 119.425 32.559C119.425 33.152 118.992 33.4215 118.397 33.4215L119.533 35.0386ZM118.289 33.2598C118.505 33.2598 118.722 33.2598 118.884 33.0981C119.046 32.9903 119.154 32.7747 119.154 32.559C119.154 32.2895 119.046 32.0739 118.776 31.9661C118.614 31.8583 118.343 31.9122 118.127 31.9122H117.965V33.2598H118.289Z" fill="#ABABAB"/>
<path d="M124.131 33.3676C124.131 34.3379 123.265 35.0925 122.292 35.0925C121.318 35.0925 120.453 34.3379 120.453 33.3676C120.453 32.3973 121.264 31.6427 122.292 31.6427C123.319 31.6427 124.131 32.3973 124.131 33.3676ZM120.669 33.3676C120.669 34.1761 121.372 34.8769 122.292 34.8769C123.157 34.8769 123.914 34.1761 123.914 33.3676C123.914 32.5591 123.157 31.8583 122.292 31.8583C121.426 31.8044 120.669 32.5052 120.669 33.3676Z" fill="#ABABAB"/>
<path d="M127.43 31.6427H127.647V33.7449C127.647 34.0683 127.647 34.3918 127.43 34.6613C127.214 34.9308 126.835 35.0386 126.457 35.0386C126.078 35.0386 125.753 34.9308 125.483 34.6613C125.267 34.3918 125.267 34.0683 125.267 33.7449V31.6427H125.483V33.691C125.483 34.0144 125.483 34.3379 125.645 34.5535C125.807 34.7691 126.186 34.8769 126.457 34.8769C126.727 34.8769 127.052 34.7691 127.268 34.5535C127.43 34.3379 127.43 34.0144 127.43 33.691V31.6427Z" fill="#ABABAB"/>
<path d="M129.215 35.0386H128.999V31.6966H129.648C129.919 31.6966 130.189 31.6966 130.405 31.9122C130.622 32.0739 130.73 32.3434 130.73 32.6129C130.73 32.8286 130.622 33.0981 130.459 33.2598C130.243 33.4215 129.973 33.4754 129.648 33.4754H129.269V35.0386H129.215ZM129.594 33.2598C129.81 33.2598 130.027 33.2598 130.189 33.0981C130.351 32.9903 130.405 32.7747 130.405 32.6129C130.405 32.3973 130.297 32.1817 130.135 32.0739C129.973 31.9661 129.756 31.9661 129.54 31.9661H129.161V33.3137H129.594V33.2598Z" fill="#ABABAB"/>
<path d="M50.7852 29.7022H131" stroke="#B9B9B9" stroke-width="0.5" stroke-linecap="round" stroke-linejoin="round"/>
<path d="M12.0573 22.0479C12.0573 22.0479 3.88983 16.4959 13.68 12.2914C13.68 12.2914 6.91884 16.7115 12.0573 22.0479Z" fill="#ABABAB"/>
<path d="M45.1602 5.12235C45.1602 5.12235 62.9556 4.36771 71.7181 9.75802C71.7722 9.75802 60.9002 5.877 45.1602 5.12235Z" fill="#ABABAB"/>
<path d="M29.0953 26.2524V26.6297H22.1719V26.2524C23.4159 26.0367 23.6864 25.1204 23.6864 18.3825C23.6864 11.5907 23.4159 10.7822 22.1719 10.5665V10.2431H29.0953V10.5665C27.7431 10.7822 27.5808 11.8063 27.5808 16.1186C28.7708 16.2803 32.557 16.2803 33.747 16.1186C33.747 11.9141 33.6388 10.8361 32.2325 10.5665V10.2431H39.156V10.5665C37.9119 10.7822 37.6415 11.5907 37.6415 18.3825C37.6415 25.1204 37.9119 26.0367 39.156 26.2524V26.6297H32.2325V26.2524C33.6388 25.9828 33.747 25.2282 33.747 18.3825C32.6111 18.2208 28.8249 18.2208 27.5808 18.3825C27.5808 25.1204 27.6349 25.9828 29.0953 26.2524ZM47.3235 20.323C46.5121 20.323 43.9699 20.3769 43.0504 20.4308L44.1863 18.8676C44.5108 18.9754 45.214 18.9754 45.7549 18.9754C46.3499 18.9754 46.8907 18.9215 47.1612 18.9215C47.1612 18.0052 46.6203 17.1427 45.4844 17.1427C43.6995 17.1427 42.78 18.9754 42.78 20.6464C42.78 22.7487 44.1863 25.3899 47.5939 25.3899C49.1625 25.3899 50.1361 24.797 50.5688 24.4736L50.8393 24.7431C49.8657 25.6594 48.0266 26.8453 45.5926 26.8453C42.2391 26.8453 39.0478 25.0126 39.0478 21.1316C39.0478 18.0052 41.6441 15.5795 45.5926 15.5795C48.0807 15.5795 51.2179 16.7654 51.2179 20.4308C49.7034 20.3769 48.5134 20.323 47.3235 20.323ZM57.4382 15.6334C60.4131 15.6334 61.9817 16.981 61.9817 18.7598C61.9817 24.5814 61.8194 26.1445 63.4962 26.3063V26.6297H58.3577C58.52 25.8211 58.4118 23.0182 58.4118 21.1855C57.4382 21.7784 54.9501 21.994 54.9501 24.204C54.9501 25.5516 56.4646 26.4141 57.8709 25.9828L57.9791 26.1985C57.6545 26.4141 56.4646 27.007 55.0583 27.007C53.111 27.007 51.1097 26.0906 51.1097 24.0962C51.1097 21.5089 54.6255 20.9698 55.5451 20.5925C56.5728 20.2152 58.1414 19.784 58.1414 18.8676C58.1414 17.8435 56.8432 17.6279 55.9237 17.6279C54.6796 17.6279 52.9488 18.0591 51.9752 18.3286L51.8129 18.1669L54.0306 16.1186C55.2746 15.7951 56.3023 15.6334 57.4382 15.6334ZM70.636 26.3063V26.6297H64.0912V26.3063C65.3893 26.0906 65.6057 25.336 65.6057 21.4011C65.6057 17.3044 65.3352 16.5498 64.0912 16.3342V15.9569H68.4724V16.8732C69.0133 16.2264 69.6624 15.6334 71.1769 15.6334C71.8801 15.6334 72.9619 15.849 73.6109 16.442C73.3946 16.8732 72.5832 18.7059 72.421 19.2449L71.9882 19.1371C72.2046 18.3286 71.6637 17.52 70.7442 17.52C69.1756 17.52 69.1215 19.2449 69.1215 21.4011C69.1215 25.3899 69.3379 26.0906 70.636 26.3063ZM78.4249 19.5684V23.2877C78.4249 25.1204 79.3985 25.6594 80.4803 25.6594C81.1294 25.6594 81.3998 25.4438 82.2111 25.0126L82.4816 25.336C81.2916 26.0906 80.0476 26.8453 78.2085 26.8453C75.8286 26.8453 74.8009 25.6055 74.8009 23.8806V17.7896H73.6109C75.3418 16.4959 76.9645 15.1483 78.479 13.5851V15.9569H82.2111L81.1294 17.7357C81.1294 17.7357 80.3721 17.7357 79.723 17.7357C78.5331 17.7357 78.4249 17.7896 78.4249 19.5684ZM88.756 26.3063V26.6297H82.2111V26.3063C83.5093 26.0906 83.7797 22.8565 83.7797 17.1427C83.7797 11.3751 83.5093 10.6743 82.2652 10.5126V10.2431H87.5119C87.5119 10.2431 87.2956 11.429 87.2956 17.1966C87.1874 22.8026 87.4578 26.0906 88.756 26.3063ZM95.409 15.6334C98.3839 15.6334 99.9525 16.981 99.9525 18.7598C99.9525 24.5814 99.7902 26.1445 101.467 26.3063V26.6297H96.3285C96.4908 25.8211 96.3826 23.0182 96.3826 21.1855C95.409 21.7784 92.9209 21.994 92.9209 24.204C92.9209 25.5516 94.4354 26.4141 95.8417 25.9828L95.9499 26.1985C95.6253 26.4141 94.4354 27.007 93.029 27.007C91.0818 27.007 89.0805 26.0906 89.0805 24.0962C89.0805 21.5089 92.5963 20.9698 93.5158 20.5925C94.5435 20.2152 96.1121 19.784 96.1121 18.8676C96.1121 17.8435 94.814 17.6279 93.8945 17.6279C92.6504 17.6279 90.9195 18.0591 89.9459 18.3286L89.7837 18.1669L92.0013 16.1186C93.2454 15.7951 94.2731 15.6334 95.409 15.6334ZM107.092 21.2933C107.092 25.2821 107.309 26.0906 108.607 26.2524V26.5758H102.062V26.2524C103.36 26.0367 103.576 25.2821 103.576 21.3472C103.576 17.3583 103.36 16.4959 102.062 16.2803V15.9569H106.605C106.605 16.3342 106.551 16.8193 106.551 17.1966C107.038 16.442 108.445 15.6334 110.608 15.6334C114.178 15.6334 115.53 17.4122 115.53 19.8379C115.53 25.336 115.747 26.0906 117.045 26.3063V26.6297H110.5V26.3063C111.798 26.0906 112.014 25.336 112.014 21.3472C112.014 18.4903 111.528 17.4122 109.689 17.4122C107.958 17.3583 107.092 19.0832 107.092 21.2933ZM125.483 24.9048C125.699 24.6892 125.753 23.665 125.753 19.5684C125.699 17.2505 125.753 12.3992 125.537 10.1353H130.783V10.4048C129.539 10.6204 129.269 11.2673 129.269 17.0349C129.269 20.2691 129.377 24.9587 129.702 26.7914C127.646 25.9828 126.781 26.7914 123.752 26.7914C119.641 26.7914 116.774 24.6892 116.774 21.0238C116.774 17.4122 119.533 15.7412 122.94 15.5795L125.537 17.4122C122.778 17.1966 120.452 18.652 120.452 21.5089C120.452 22.9104 121.318 25.1204 124.401 25.1204C125.104 25.1743 125.375 25.0665 125.483 24.9048Z" fill="#ABABAB"/>
</svg>
