<svg width="235" height="21" viewBox="0 0 235 21" fill="none" xmlns="http://www.w3.org/2000/svg">
<path fill-rule="evenodd" clip-rule="evenodd" d="M231.723 14.8762C231.572 15.2962 231.584 15.7576 231.756 16.1692C231.929 16.5808 232.25 16.9128 232.655 17.0995C233.283 17.3847 234.091 17.2 234.527 16.6951C234.766 16.4175 235.005 15.8447 235 15.5118C234.993 15.0132 234.657 14.3851 234.294 14.1176C233.749 13.7181 233.259 13.703 232.634 13.9543C232.424 14.0336 232.235 14.157 232.078 14.316C231.921 14.4751 231.8 14.6662 231.723 14.8762ZM234.651 15.1476C234.844 16.052 234.265 16.7139 233.675 16.8734C233.067 17.038 232.377 16.7692 232.082 16.1838C231.783 15.5872 231.905 14.777 232.465 14.3901C232.669 14.2482 233.132 14.0736 233.333 14.0786C233.676 14.0874 234.241 14.4014 234.43 14.6828C234.523 14.826 234.623 15.022 234.651 15.1476ZM100.468 16.7679C100.321 17.5555 100.924 18.6345 101.224 18.9485C102.066 19.8316 103.491 19.9861 104.499 19.407C104.646 19.3241 105.325 18.7011 105.41 18.5704C105.932 17.7753 106.022 16.8948 105.654 15.9477C105.337 15.13 104.557 14.4793 103.594 14.2997C102.49 14.0937 101.166 14.7908 100.767 15.7166C100.638 16.0579 100.538 16.4097 100.468 16.7679ZM104.28 16.5494C104.434 17.2955 104.317 17.7025 103.88 18.014C103.371 18.3745 102.549 18.3104 102.176 17.72C102.06 17.5399 101.99 17.3336 101.974 17.1198C101.957 16.906 101.994 16.6914 102.081 16.4954C102.235 16.1248 102.533 15.8711 103.01 15.7894C103.404 15.7216 103.76 15.8912 104.071 16.2328C104.16 16.3333 104.263 16.4702 104.28 16.5494ZM117.393 16.5016C117.207 18.3255 118.83 19.7587 120.5 19.5251C120.958 19.4672 121.394 19.2986 121.771 19.0339C121.913 18.9334 122.51 18.2639 122.595 18.112C123.25 16.9413 122.961 15.2305 121.656 14.4027C120.925 13.9379 120.269 13.8312 119.473 14.0673C118.659 14.3072 118.322 14.5371 117.78 15.346C117.561 15.6688 117.443 16.0143 117.393 16.5016ZM121.407 16.4866C121.456 16.6872 121.452 16.8969 121.397 17.0958C121.342 17.2947 121.237 17.4762 121.092 17.6233C120.947 17.7703 120.767 17.8781 120.569 17.9363C120.371 17.9946 120.162 18.0014 119.96 17.9562C119.438 17.8218 119.168 17.5191 119.055 16.9475C118.972 16.5305 119.165 15.9741 119.57 15.7279C119.906 15.5219 120.54 15.5344 120.877 15.7203C121.037 15.8083 121.332 16.1449 121.407 16.4866ZM102.745 13.8676L120.924 13.6654C121.16 13.6628 121.191 13.6603 121.255 13.6402C121.701 13.5008 121.594 12.8112 121.425 12.6115C121.199 12.3439 121.096 12.4017 121.052 12.0299C121.032 11.849 121.062 11.5639 121.189 11.4081C121.255 11.329 121.348 11.2876 121.417 11.2122C121.651 10.9534 121.577 10.2927 121.278 10.1206C121.189 10.0715 121.093 10.0368 120.993 10.0176C120.858 9.99378 120.816 9.99127 120.581 9.99378L102.635 10.1935C102.399 10.196 102.362 10.1998 102.272 10.2299C101.85 10.3694 101.751 10.8077 101.827 11.1331C101.856 11.2587 101.913 11.3943 101.973 11.4509C102.043 11.5187 102.203 11.5312 102.267 11.5953C102.301 11.6305 102.306 12.4331 102.272 12.4696C102.209 12.5349 102.051 12.5487 101.98 12.6178C101.832 12.7647 101.776 13.1843 101.841 13.3765C101.89 13.5197 102.095 13.7407 102.351 13.8236C102.472 13.8663 102.51 13.8701 102.745 13.8676ZM105.143 11.3165L118.04 11.1507C118.276 11.1481 118.32 11.1494 118.486 11.1695C118.913 11.221 119.006 11.3881 119.106 11.6945C119.219 12.0274 119.135 12.1919 118.849 12.4055C118.712 12.5072 118.669 12.5185 118.434 12.5185C114.95 12.5324 108.827 12.5826 107.982 12.6391C106.843 12.7157 105.156 12.7597 104.889 12.7183C104.401 12.6454 104.032 12.4256 104.187 11.8767C104.265 11.6041 104.372 11.4157 104.731 11.3479C104.867 11.3227 104.907 11.3202 105.143 11.3165ZM115.079 9.41848L116.562 9.40844C116.562 9.40844 116.579 9.22379 116.561 9.11702C116.552 9.06427 116.466 8.97257 116.385 8.92986C116.165 8.81179 115.52 8.46259 115.423 8.45631C115.265 8.44501 115.095 8.47641 115.095 8.47641C115.095 8.47641 115.143 8.73266 115.137 8.97885C115.13 9.20118 115.079 9.41848 115.079 9.41848Z" fill="#ABABAB"/>
<path fill-rule="evenodd" clip-rule="evenodd" d="M124.398 13.3124L123.181 14.1741L123.228 14.8737L123.576 14.8712L126.091 13.8274L122.583 9.32679L119.435 8.25409L119.337 8.69246L122.148 9.89706L124.398 13.3124ZM109.465 9.45868L114.005 9.50766C114.241 9.51018 114.274 9.50892 114.336 9.48882C114.383 9.47356 114.428 9.4511 114.468 9.42225C114.557 9.35173 114.619 9.25212 114.642 9.14088C114.665 9.04291 114.565 8.21263 114.518 8.12345C114.491 8.06943 114.203 7.8873 114.13 7.87725C114.014 7.86097 113.897 7.86223 113.781 7.88102C113.625 7.90865 113.588 7.89483 113.407 7.74536L110.916 5.68033L109.188 7.43384C109.099 7.51864 109.015 7.60795 108.936 7.7014C108.699 7.98779 108.664 8.62086 108.707 8.81807C108.765 9.03156 108.893 9.21967 109.07 9.35317C109.19 9.44612 109.229 9.45617 109.465 9.45868ZM144.824 8.75401L140.86 15.5847C140.78 15.7398 140.671 15.878 140.539 15.9917C139.955 16.5431 139.674 16.7541 139.12 16.8697C138.642 16.9702 137.739 17.1096 137.739 17.1096L136.89 18.8958L147.451 18.7413L148.28 16.8986C148.28 16.8986 147.789 16.935 147.495 16.9036C147.05 16.8571 146.619 16.5695 146.533 16.327C146.499 16.2341 146.496 15.7781 146.528 15.6261C146.564 15.4478 146.765 14.9767 146.916 14.7217C147.358 13.9568 148.267 12.6153 148.267 12.6153C148.267 12.6153 148.851 12.5826 149.214 12.609C149.647 12.6416 150.252 13.0335 150.265 13.4594C150.272 13.688 150.184 14.1753 150.184 14.1753L152.306 14.1615L154.687 9.25143L152.566 9.26524C152.566 9.26524 152.291 9.64961 152.075 9.88073C151.724 10.255 151.079 10.4585 150.489 10.5025C149.998 10.5402 149.272 10.51 149.272 10.51L151.046 6.73923C151.046 6.73923 151.659 6.71787 152.071 6.73294C152.735 6.75681 153.327 6.91885 153.366 7.36477C153.383 7.57705 153.368 7.94885 153.368 7.94885L157.152 7.92373L158.845 4.32877C158.845 4.32877 148.671 5.02465 147.68 5.14398C145.908 5.35626 144.174 5.62256 144.174 5.62256C144.174 5.62256 144.125 6.02073 144.024 6.34732C143.963 6.54076 143.885 6.72039 143.885 6.72039C143.885 6.72039 144.476 6.82967 144.726 6.91131C145.077 7.02688 145.303 7.38235 145.254 7.66874C145.175 8.05259 145.029 8.41977 144.824 8.75401ZM159.339 6.11871C159.339 6.11871 159.982 6.20162 160.256 6.28703C160.544 6.37747 160.766 6.72164 160.783 6.98291C160.791 7.10224 160.724 7.37858 160.658 7.56699C160.58 7.78932 160.557 7.83705 160.444 8.04431L156.47 15.3046C156.357 15.5118 156.333 15.5495 156.23 15.6814C156.026 15.9376 155.383 16.3044 155.259 16.3723C155.075 16.4727 154.44 16.69 154.214 16.7277C153.882 16.7843 153.441 16.8307 153.441 16.8307L152.617 18.7048L169.001 18.5114L171.343 13.8638L166.908 13.8927C166.908 13.8927 166.179 15.2392 165.943 15.5596C165.244 16.5117 163.701 16.7127 162.501 16.5431C162.339 16.5205 161.915 16.3672 161.858 16.312C161.721 16.175 161.613 15.6525 161.782 15.2769C161.833 15.1601 161.851 15.1249 161.965 14.9189L166.541 6.69149C166.657 6.48549 166.686 6.44153 166.835 6.25814C167.118 5.90894 167.463 5.71927 167.841 5.62507C168.175 5.54216 168.712 5.44418 168.712 5.44418L169.747 3.55878L160.117 4.28732L159.339 6.11871Z" fill="#ABABAB"/>
<path fill-rule="evenodd" clip-rule="evenodd" d="M182.237 4.54732C182.237 4.54732 182.711 4.58877 183.017 4.65534C183.499 4.7596 183.617 4.8915 183.545 5.22059C183.519 5.33616 183.285 5.76072 183.154 5.92275C182.848 6.31214 179.997 9.21625 179.997 9.21625C179.997 9.21625 178.767 6.30712 178.663 5.92401C178.629 5.80091 178.626 5.28089 178.658 5.22311C178.761 5.0372 179.052 4.76839 179.523 4.72317C179.847 4.69177 180.339 4.71815 180.339 4.71815L180.784 2.96589C180.784 2.96589 176.839 3.05884 174.264 3.1832C173.047 3.24224 172.137 3.31006 171.317 3.4206C171.02 3.46079 170.956 3.47462 170.853 3.65047C170.598 4.08508 169.909 5.49065 169.909 5.49065L171.873 5.34244C172.109 5.32485 172.146 5.32485 172.229 5.34118C172.29 5.35249 172.344 5.38262 172.403 5.40775C172.496 5.44417 172.597 5.46553 172.684 5.51829C172.802 5.58863 172.825 5.62003 172.939 5.82728L175.914 11.3252L173.574 15.547C173.506 15.6882 173.414 15.8172 173.304 15.9288C173.108 16.1386 172.735 16.2956 172.534 16.3496C172.197 16.4401 171.579 16.5481 171.579 16.5481L170.765 18.5038L180.691 18.4398L181.564 16.4652C181.564 16.4652 180.811 16.3961 180.386 16.3006C179.954 16.2027 179.616 16.0318 179.667 15.5457C179.68 15.4339 179.693 15.3963 179.781 15.1777L181.528 10.8278L188.407 4.65911L189.854 4.39282L190.74 2.65438L182.712 2.86415L182.237 4.54732ZM191.146 4.31495C191.146 4.31495 191.55 4.40035 191.784 4.46818C193.241 4.88646 191.943 6.79951 191.241 8.14353C190.356 9.83676 187.553 14.8951 187.401 15.0747C187.058 15.4792 186.67 15.8761 186.057 16.0896C185.604 16.2466 184.664 16.4489 184.664 16.4489L183.774 18.4209L200.061 18.3154L202.443 13.5799L198.052 13.6076C197.816 13.6088 197.777 13.6201 197.657 13.7131C197.361 13.9455 196.949 14.7531 196.826 14.9265C196.548 15.3171 196.126 15.5445 195.653 15.6337C195.323 15.6952 193.418 15.7404 193.418 15.7404L195.852 10.7361L198.066 10.7211L197.988 12.2083L200.212 12.1945L202.845 6.92386C202.845 6.92386 200.946 6.98039 200.804 7.03315C200.711 7.06706 200.416 7.38108 200.139 7.60592C199.668 7.98526 199.028 8.15484 198.435 8.18499C197.905 8.21263 197.096 8.19378 197.096 8.19378L199.389 4.07001L202.348 4.05117L201.562 5.54215L206.525 5.51075L208.09 2.26122L206.41 2.33533L192.039 2.5451L191.146 4.31495ZM115.493 6.07349L115.488 5.21934L116.45 5.21305L117.062 5.39394C117.062 5.39394 116.716 5.80342 116.68 5.90391C116.64 6.01947 117.028 6.50056 117.331 6.73796C117.837 7.13615 118.331 6.99546 118.683 6.51061C119.009 6.0559 119.136 5.64515 119.068 5.38891C119.034 5.26581 118.764 4.81864 118.582 4.58751C118.386 4.33755 116.498 2.54258 116.344 2.45968C115.917 2.23233 115.387 2.29514 114.86 2.5564C114.639 2.66694 112.928 3.96952 112.428 4.40789C112.113 4.68549 111.984 4.81361 111.91 5.09498C111.88 5.21179 111.882 5.53588 111.913 5.62129C112.116 6.16141 114.634 7.52428 115.403 7.97145C115.606 8.08952 115.643 8.09831 115.77 8.05686C115.863 8.02672 115.987 7.99406 116.06 8.0129C116.133 8.03175 116.821 8.76782 117.084 9.09943C117.138 9.16851 117.437 9.34437 117.522 9.35944C117.725 9.3921 118.044 9.39963 118.044 9.39963C118.044 9.39963 118.129 9.04667 118.109 8.9801C118.1 8.95246 118.077 8.95874 118.062 8.94367C118.034 8.91227 118.041 8.78917 118.061 8.72008C118.077 8.66481 118.102 8.64221 118.147 8.63216C118.268 8.60578 118.568 8.64598 118.681 8.60955C118.861 8.55051 119.057 8.17745 118.995 8.04807C118.88 7.79434 118.264 7.42253 118.092 7.38988C117.919 7.35722 117.41 7.42756 117.305 7.3949C117.168 7.35093 115.493 6.07349 115.493 6.07349ZM10.3314 5.4178C10.3314 5.4178 6.03179 13.9492 5.61225 14.6677C4.67395 16.2793 3.39524 17.8431 1.32518 18.1911C1.23065 18.2108 1.13389 18.2175 1.03754 18.2112C0.90816 18.1961 0.883038 18.2187 0.787574 18.4348L0 20.2134L11.5222 20.0514L12.5145 18.0981C12.5145 18.0981 11.7596 18.0077 11.3916 17.9097C10.6781 17.7163 10.1417 17.0217 10.2473 16.3346C10.2761 16.1386 10.3528 15.8798 10.4445 15.6651C10.5089 15.5026 10.5854 15.3452 10.6731 15.194L16.5403 4.54481C16.5403 4.54481 17.706 4.49456 18.3466 4.5335C18.9885 4.57119 19.6693 4.77216 20.1215 5.08996C20.2345 5.16783 20.6201 5.62003 20.6704 5.73182C21.154 6.80453 20.5975 8.53795 19.9318 9.41847C19.1957 10.3907 18.0049 10.9823 16.7149 11.1883C15.9324 11.3139 14.6662 11.4207 14.6662 11.4207L12.4052 15.6676C12.4052 15.6676 13.7794 16.3408 14.8747 16.8395C15.4488 17.102 18.5023 18.2262 19.0726 18.387C22.4754 19.3442 24.9185 19.7537 28.5926 19.9421C29.4003 19.9835 36.4708 19.9371 37.325 19.8856C43.8253 19.4886 51.1911 18.372 57.6298 17.2189C61.9709 16.4438 97.4846 9.65463 97.4846 9.65463L98.0536 8.24151C98.0536 8.24151 85.7376 10.5552 76.6183 12.202C76.2025 12.2774 47.7971 17.3407 41.2315 17.9813C38.0962 18.2853 33.455 18.4574 30.1514 18.1383C27.0338 17.8394 22.915 16.8521 20.1868 15.2304C19.5035 14.8247 18.5802 14.2105 18.5802 14.2105C18.5802 14.2105 20.0549 14.002 20.8764 13.8274C23.8119 13.2044 26.3517 11.4898 27.0388 8.84947C27.3955 7.47655 27.3679 6.08102 26.8818 4.74076C26.5062 3.70699 25.74 2.84531 24.8168 2.525C24.5542 2.43456 23.9488 2.32654 23.5079 2.26499C23.3357 2.23681 23.161 2.22671 22.9866 2.23484L8.6294 2.49863L7.29166 4.50964L10.0036 4.77216L10.3314 5.4178Z" fill="#ABABAB"/>
<path fill-rule="evenodd" clip-rule="evenodd" d="M49.9952 3.49973C49.9952 3.49973 50.6007 3.60398 50.7388 3.6693C50.9423 3.76728 51.0378 4.10391 51.0051 4.32373C50.985 4.48617 50.9454 4.64559 50.8871 4.79853C50.8226 4.95481 50.7505 5.10783 50.671 5.25701L46.6892 12.9481C46.6143 13.1063 46.5179 13.2534 46.4028 13.3852C46.1453 13.7005 45.8011 14.0886 45.5712 14.2808C45.4255 14.4027 44.913 14.6928 44.7887 14.723C44.5023 14.7921 44.1041 14.8963 44.0576 14.9453C43.971 15.0395 43.3228 16.626 43.3228 16.626C43.3228 16.626 46.2006 16.2504 48.5495 15.9213C49.7101 15.7593 56.5307 14.5283 57.0897 14.3801C57.9036 14.164 58.337 13.9078 58.9864 13.2998C59.2627 13.0423 60.1407 11.9885 60.4749 11.5174C60.7098 11.1833 64.218 4.76838 64.3123 4.49958C64.5484 3.82756 64.7318 3.35025 64.4755 2.74983C64.2834 2.29764 63.948 2.10671 63.379 1.92584C63.2245 1.86999 63.0638 1.83329 62.9004 1.81656C62.7316 1.80315 62.5622 1.79812 62.3929 1.80148L50.7238 1.87685L49.9952 3.49973ZM51.4724 13.2006L56.8158 3.49847C56.8158 3.49847 57.6373 3.46581 58.0694 3.49093C58.6058 3.52107 58.7691 3.78611 58.6837 4.46566C58.6747 4.56357 58.6514 4.65964 58.6146 4.7508C58.5602 4.87612 58.4985 4.99817 58.4299 5.11633L54.8023 11.6769C54.7221 11.8324 54.6239 11.9778 54.5096 12.1103C54.124 12.5864 53.5676 12.7898 52.981 12.9217C52.427 13.0461 51.4724 13.2006 51.4724 13.2006ZM30.7593 17.1686L32.2026 15.0709C32.2026 15.0709 31.5343 14.9667 31.1336 14.8549C30.6814 14.728 30.4101 14.522 30.2996 14.056C30.2468 13.8337 30.3109 13.6352 30.4264 13.3739C30.6538 12.8564 31.9928 10.4799 31.9928 10.4799L37.948 10.3518C37.948 10.3518 36.2083 13.5247 36.0136 13.7759C35.4521 14.4969 35.0301 14.718 34.0629 14.9604C33.9258 14.9949 33.798 15.0593 33.6885 15.1488C33.5554 15.2769 32.4387 17.195 32.4387 17.195L33.0731 17.2641C33.4562 17.303 38.3185 17.2226 38.7833 17.1686C40.1374 17.0091 41.9813 16.7855 41.9813 16.7855L43.0138 14.9981C43.0138 14.9981 42.6383 14.9541 42.4335 14.9152C42.3417 14.9023 42.2528 14.8734 42.171 14.8297C42.0323 14.732 41.913 14.6094 41.8193 14.468C41.7979 14.4177 41.7615 13.8211 41.8846 13.5284C41.9373 13.4016 41.9562 13.3651 42.0692 13.1579L46.5611 4.93293C46.6741 4.72568 46.6955 4.67795 46.7796 4.45688C47.2029 3.33141 46.9793 2.46595 46.0159 2.12806C45.7512 2.04145 45.4785 1.98129 45.202 1.94844C45.029 1.92297 44.8541 1.91371 44.6794 1.9208L35.1067 2.06526C34.9381 2.06184 34.7697 2.07957 34.6055 2.11802C34.0603 2.22981 33.1082 2.89303 32.8118 3.20329C32.6485 3.37412 32.6171 3.41557 32.4965 3.61906L27.3264 12.2962C27.2401 12.4484 27.1387 12.5914 27.0237 12.7233C26.6318 13.1943 25.9585 13.6038 25.4108 13.7131C24.9423 13.8048 24.1887 13.845 24.1032 13.8965C23.9776 13.9706 22.8999 15.194 22.8999 15.194C22.8999 15.194 24.146 15.6852 24.9888 15.9879C25.4548 16.1562 26.9081 16.5293 27.4784 16.6285C28.6993 16.8345 30.7593 17.1686 30.7593 17.1686ZM38.5999 8.86076L32.8859 8.89718L34.8756 5.09497C34.9848 4.8852 35.0087 4.85128 35.1155 4.74577C35.4596 4.40411 36.3125 4.19434 36.5751 4.15289C36.8891 4.10516 39.0119 4.09134 39.3134 4.13531C39.9452 4.22952 40.3597 4.45687 40.3635 5.00202C40.3647 5.10753 40.1889 5.61876 40.0645 5.87878C39.5696 6.90124 38.5999 8.86076 38.5999 8.86076ZM66.2693 3.36658C66.2693 3.36658 66.6913 3.41808 66.9664 3.47712C67.5555 3.6065 67.7803 3.9896 67.6711 4.44933C67.6296 4.62393 67.2025 5.45297 66.8521 6.05589C65.969 7.57703 64.6614 9.88574 64.4353 10.1797C64.0862 10.6331 63.4443 11.2335 62.7321 11.432C62.408 11.5224 61.9847 11.6455 61.9257 11.7021C61.8264 11.7963 60.8014 13.9455 60.8014 13.9455L70.9357 12.0023L71.7283 10.3015C71.7283 10.3015 71.3238 10.2023 71.0663 10.137C70.8842 10.0892 70.6091 9.96738 70.5563 9.90834C70.4187 9.70464 70.3092 9.48323 70.231 9.25015C70.2068 9.04011 70.2295 8.82731 70.2976 8.62713C70.3496 8.49697 70.413 8.3717 70.4872 8.2528L72.7294 4.32121C72.8462 4.11647 72.8701 4.07879 72.9743 3.9469C73.2105 3.64669 73.7405 3.42562 74.0307 3.38668C74.3146 3.34774 75.1637 3.37914 75.1637 3.37914L76.0744 1.62436L66.9463 1.68341L66.2693 3.36658ZM75.0393 11.2122L82.6287 10.0591C82.8024 10.0415 82.9712 9.99124 83.1261 9.91085C84.4714 9.29913 85.6785 7.34591 86.2664 6.28325C86.7512 5.40523 87.422 4.0901 87.5551 3.19701C87.6368 2.64684 87.5061 2.09415 87.0225 1.7751C86.9647 1.73616 86.5465 1.5289 86.3869 1.50127C86.2511 1.47678 86.1128 1.46836 85.9749 1.47615L79.9796 1.51509C79.8047 1.51216 79.6298 1.52435 79.457 1.55151C78.726 1.652 78.0263 1.90825 77.5302 2.39562C77.3619 2.56142 77.3292 2.60287 77.2086 2.8051C76.2665 4.38402 74.7793 6.92134 74.4527 7.58079C74.1576 8.17619 73.2745 9.99628 73.7744 10.8203C73.8875 11.0049 74.2229 11.2059 74.5721 11.2335C74.7605 11.2499 74.807 11.2473 75.0393 11.2122ZM82.9879 4.8425L81.0184 8.41359L77.8982 8.84946C77.8982 8.84946 78.265 7.90235 78.5941 7.11729C78.78 6.67137 79.9545 4.48702 80.1027 4.30991C80.3552 4.00844 80.6101 3.79742 81.0435 3.69191C81.3135 3.62659 82.5031 3.59017 82.8485 3.81124C83.0105 3.9155 83.16 4.19687 83.1286 4.48577C83.1161 4.60007 83.1022 4.63524 82.9879 4.8425ZM125.811 5.94409L175.638 2.47349L206.155 1.67084C206.391 1.66456 206.442 1.66331 206.677 1.65954C209.146 1.61809 212.462 1.57915 214.082 1.61558C214.867 1.63316 220.888 2.12807 221.479 2.22353C224.279 2.67447 226.634 3.60021 228.157 5.91144C229.099 7.34339 229.646 9.81289 229.086 11.3981C228.054 14.3072 223.645 14.8549 220.682 14.0321C220.319 13.9304 219.482 13.6842 219.109 13.4304C218.952 13.3249 218.758 13.1704 218.758 13.1704C218.758 13.1704 220.051 12.8891 220.934 12.6316C223.186 11.9759 225.06 10.6859 225.271 8.42489C225.403 6.98038 224.935 5.25198 223.848 4.39532C221.616 2.63553 215.081 2.38055 213.208 2.32276C211.883 2.28718 210.558 2.26665 209.233 2.26121L208.49 4.27599C208.49 4.27599 209.398 4.42296 209.54 4.48702C209.836 4.6252 209.844 5.17411 209.684 5.5949C209.627 5.76034 209.554 5.91979 209.466 6.07096L204.38 15.3121C204.309 15.4718 204.19 15.6053 204.04 15.6939C203.876 15.8148 203.696 15.9105 203.504 15.9778C203.119 16.1122 202.459 16.2466 202.459 16.2466L201.37 18.3091L210.706 18.2476L211.792 15.7241V15.444C211.792 15.444 211.54 15.4917 211.334 15.5055C211.221 15.5131 210.644 15.3736 210.569 15.3209C210.064 14.9629 210.137 14.4102 210.429 13.7043C210.62 13.2383 215.184 4.66915 215.184 4.66915C215.184 4.66915 216.138 4.6277 216.785 4.6591C217.756 4.70558 218.816 5.01333 219.364 5.77955C219.884 6.50432 219.756 7.97018 219.207 8.66481C218.628 9.40214 217.642 9.84429 216.643 10.1244C216.293 10.2224 215.895 10.2877 215.294 10.3518C214.641 10.4208 213.701 10.4987 213.701 10.4987L212.053 13.6465C212.053 13.6465 212.666 14.2997 213.184 14.7795C213.431 15.0094 214.945 16.0708 215.287 16.2516C217.632 17.5015 219.133 17.8306 221.972 17.8255C224.913 17.8205 228.162 17.1146 230.374 15.0182C232.626 12.884 232.844 9.33556 231.758 6.3988C229.91 1.40455 223.714 0.432328 218.517 0.101974C217.686 0.0492177 207.349 -0.0261451 205.76 0.00902565C201.879 0.0944404 183.176 0.732534 178.891 0.924718C166.22 1.49373 150.503 2.37803 138.25 3.32764C134.366 3.62785 130.495 3.95569 126.624 4.30991C126.387 4.33126 126.354 4.34508 126.284 4.45436C126.235 4.53626 126.198 4.62464 126.174 4.71689C126.042 5.12763 125.811 5.94409 125.811 5.94409ZM117.449 2.23357L119.932 4.86761C120.092 5.0397 120.118 5.06357 120.195 5.1113C120.521 5.32107 120.776 5.16405 120.938 4.92163C121.216 4.51465 121.432 3.85017 121.847 3.64794C122.195 3.47837 122.251 3.555 122.413 3.33769C122.57 3.12792 122.578 2.99854 122.467 2.76365C122.41 2.64279 122.349 2.52381 122.284 2.40692C121.923 1.72988 121.231 0.498901 121.128 0.417254C120.93 0.255217 120.336 0.041681 119.957 0.119559C119.592 0.194925 119.15 0.439865 118.863 0.694853C118.537 0.983756 117.449 2.23357 117.449 2.23357Z" fill="#ABABAB"/>
</svg>
