<svg width="125" height="50" viewBox="0 0 125 50" fill="none" xmlns="http://www.w3.org/2000/svg">
<path d="M62.5137 42.1417C64.3651 42.1417 85.8498 42.4861 112.028 49.8056L124.514 10.6681C94.5901 0.162532 64.6234 0.162531 62.5137 0.205587C60.4039 0.205587 30.4373 0.162532 0.513672 10.6681L12.6553 49.8056C38.8762 42.4431 60.6192 42.0986 62.5137 42.1417Z" fill="#CBCBCB"/>
<path d="M110.693 36.157C87.2275 30.3014 66.7761 30.0001 62.9011 30.0001H62.1692C58.2511 30.0001 37.8428 30.3014 14.3775 36.157L7.31641 14.0695C33.7525 5.80283 59.2845 5.54449 62.1261 5.54449H62.8581C65.6997 5.54449 91.2317 5.80283 117.668 14.0695L110.693 36.157Z" fill="#A3A3A3"/>
<path d="M21.1371 18.2459C19.8024 18.5903 18.5107 18.9778 17.2191 19.3653C17.4343 20.0111 17.6066 20.657 17.8218 21.3889C18.2955 21.2598 18.726 21.1306 19.1996 21.0014C19.5871 22.2931 19.9316 23.5848 20.3191 24.8764C20.5343 25.5653 20.1468 26.082 19.501 26.2542C18.8121 26.4695 18.1663 26.2542 17.951 25.5653C17.8218 25.1778 17.7357 24.8334 17.6066 24.4459C16.8746 24.6611 16.0996 24.9195 15.3677 25.1348C15.4968 25.5223 15.626 25.9097 15.7552 26.2542C16.401 28.1486 18.2524 28.7945 20.1038 28.2347C21.9552 27.675 23.2899 26.125 22.7732 24.1875C22.2135 22.207 21.6968 20.2264 21.1371 18.2459ZM28.4566 16.3514C28.1121 16.4375 27.7246 16.5236 27.3802 16.6097C26.5621 19.882 25.8732 23.1111 25.2274 26.3834C25.2705 26.5125 25.2705 26.5986 25.3135 26.7278C26.0885 26.5125 26.8205 26.3403 27.5955 26.1681C27.6816 25.7375 27.7677 25.35 27.8538 24.9195C29.0593 24.6181 30.2649 24.3597 31.5135 24.1014C31.7718 24.4459 32.0302 24.7903 32.2885 25.1348C33.0635 24.9625 33.8385 24.8334 34.6135 24.6611C34.6135 24.532 34.5705 24.4459 34.5705 24.3167C32.5899 21.6042 30.5663 18.9347 28.4566 16.3514ZM28.1982 22.6806C28.3705 21.8195 28.5427 20.9584 28.7149 20.0973C29.2746 20.7861 29.7913 21.5181 30.308 22.207C29.6191 22.3792 28.9302 22.5514 28.1982 22.6806ZM40.1246 14.3709C39.608 16.2223 39.1343 18.0306 38.6607 19.882C38.6177 19.882 38.6177 19.882 38.5746 19.882C37.5413 18.2889 36.508 16.6959 35.4746 15.1028C34.6566 15.232 33.8816 15.4042 33.0635 15.5334C33.1066 15.6625 33.1066 15.7486 33.1496 15.8778C35.0871 18.5472 36.9816 21.2598 38.7899 24.0153C39.1343 23.9723 39.4788 23.9292 39.7802 23.8431C40.6413 20.7 41.5885 17.5139 42.6218 14.3709C42.6218 14.2417 42.5788 14.1556 42.5788 14.0264C41.7177 14.1125 40.8996 14.2417 40.1246 14.3709ZM48.2621 13.2945C47.9177 13.3375 47.5302 13.3806 47.1857 13.3806C45.9802 16.5236 44.8607 19.6667 43.8274 22.8097L43.8705 23.1542C44.6455 23.0681 45.4205 22.982 46.1954 22.8959C46.3246 22.5084 46.4968 22.0778 46.626 21.6903C47.8746 21.5611 49.0802 21.432 50.3288 21.3459C50.5441 21.7334 50.7593 22.0778 50.9746 22.4653C51.7496 22.4223 52.5246 22.3361 53.2996 22.2931C53.2996 22.1639 53.2996 22.0778 53.2996 21.9486C51.6635 19.0639 49.9843 16.1792 48.2621 13.2945ZM47.1857 19.5806C47.4441 18.7625 47.7455 17.9014 48.0468 17.0834C48.4774 17.8584 48.908 18.6334 49.3385 19.4084C48.6066 19.4514 47.9177 19.4945 47.1857 19.5806ZM64.9677 16.2223C63.9774 16.2223 62.9871 16.1792 61.9538 16.1792C61.9538 15.0597 61.9538 13.9403 61.9538 12.8209C61.0927 12.8209 60.1885 12.8209 59.3705 12.8209C59.4135 15.8778 59.4566 18.9778 59.4996 22.0348C60.3177 22.0348 61.1357 22.0348 61.9538 22.0348C61.9538 20.7861 61.9538 19.5806 61.9538 18.332C62.9441 18.332 63.9343 18.332 64.9246 18.375C64.8816 19.6236 64.8816 20.8292 64.8385 22.0778C65.6566 22.0778 66.4746 22.1209 67.2927 22.1639C67.4218 19.107 67.5079 16.007 67.6371 12.95C66.776 12.907 65.9149 12.907 65.0538 12.8639C65.0107 13.9834 65.0107 15.1028 64.9677 16.2223ZM70.0482 17.6861C69.7899 23.9722 79.0899 24.7903 79.9079 18.5472C80.7691 12.132 70.3066 11.1847 70.0482 17.6861ZM77.4107 18.2459C77.0663 21.5611 72.3732 21.1306 72.5885 17.8153C72.8038 14.5 77.7552 14.9306 77.4107 18.2459ZM87.3135 21.1306C87.1843 21.8625 86.4093 22.1209 85.7204 21.9917C85.0316 21.8625 84.3427 21.3889 84.4718 20.657C84.7732 18.6334 85.0746 16.6097 85.4191 14.6292C84.6441 14.5 83.783 14.3709 83.0079 14.2847C82.7066 16.3084 82.4482 18.332 82.1468 20.3986C81.8885 22.4222 83.5246 23.8 85.376 24.1445C87.2705 24.4459 89.251 23.6278 89.6385 21.6473C90.026 19.6236 90.4135 17.6 90.801 15.6195C90.026 15.4903 89.1649 15.3181 88.3899 15.1889C88.0454 17.1264 87.701 19.15 87.3135 21.1306ZM92.7816 18.8486C92.3941 20.8292 93.5996 21.7764 95.6232 22.3792C96.5704 22.6375 97.3024 22.9389 97.1302 23.5848C96.8718 24.6181 93.9871 23.9722 94.2024 22.8528C93.3843 22.6806 92.6954 22.5084 91.8774 22.3361C91.0593 26.2542 98.4218 27.8473 99.4121 24.1875C100.015 21.9486 98.2066 21.2598 96.3982 20.6139C95.5802 20.3125 94.8913 20.0111 95.1066 19.3653C95.408 18.2889 98.0343 18.8056 97.7329 20.0111C98.551 20.2264 99.1968 20.3556 100.058 20.6139C101.177 16.6528 93.5135 14.8875 92.7816 18.8486ZM107.636 25.5223C107.851 24.8764 108.066 24.1875 108.282 23.5417C107.205 23.1973 106.172 22.8528 105.095 22.5514C105.225 22.1209 105.354 21.7334 105.483 21.3028C106.861 21.7334 107.593 21.9486 108.97 22.3792C109.186 21.6903 109.401 21.0445 109.616 20.3556C107.377 19.6236 105.827 19.1931 103.632 18.5472C102.813 21.475 101.995 24.4459 101.134 27.4167C103.244 28.0195 104.794 28.4931 106.904 29.1389C107.119 28.4931 107.334 27.8042 107.55 27.1584C106.172 26.7278 105.397 26.4695 104.062 26.082C104.234 25.5653 104.364 25.0486 104.536 24.532C105.569 24.8764 106.602 25.1778 107.636 25.5223ZM109.358 28.5361C109.229 28.4931 109.1 28.45 109.014 28.45L108.712 29.3111L108.927 29.3973L109.057 29.0528L109.143 29.0959C109.272 29.1389 109.272 29.182 109.272 29.2681C109.272 29.3972 109.272 29.4834 109.272 29.4834L109.487 29.5695C109.487 29.5264 109.487 29.4834 109.487 29.3542C109.487 29.225 109.487 29.1389 109.401 29.0959C109.53 29.0959 109.616 29.0528 109.659 28.9667C109.702 28.8806 109.659 28.7945 109.616 28.7514C109.573 28.6223 109.53 28.5792 109.358 28.5361ZM109.444 28.8375C109.401 28.9236 109.315 28.9236 109.186 28.8806L109.1 28.8375L109.186 28.5792C109.229 28.5792 109.229 28.5792 109.315 28.6222C109.401 28.7084 109.444 28.7945 109.444 28.8375ZM109.487 28.1056C108.97 27.9334 108.454 28.1917 108.282 28.6653C108.109 29.1389 108.368 29.6556 108.884 29.8278C109.401 30 109.918 29.7417 110.047 29.2681C110.262 28.7945 110.004 28.2778 109.487 28.1056ZM109.875 29.182C109.745 29.5695 109.358 29.7847 108.97 29.6556C108.583 29.5264 108.411 29.1389 108.54 28.7514C108.669 28.3639 109.057 28.1486 109.444 28.2778C109.832 28.407 110.004 28.7945 109.875 29.182Z" fill="white"/>
<path d="M28.4999 40.3764C28.4999 40.9792 28.1985 41.3236 27.7249 41.4098C27.079 41.5389 26.5193 40.9792 26.3471 40.2042C26.1749 39.3431 26.4763 38.6542 27.1221 38.525C27.5957 38.4389 27.9832 38.6111 28.2415 39.0848C28.629 38.9986 28.9735 38.9125 29.3179 38.8695C28.8443 37.4917 27.7679 37.1473 26.8638 37.3195C25.7443 37.5348 24.8401 38.6973 25.1846 40.4625C25.5721 42.2278 26.8638 42.8736 27.9832 42.6584C28.8874 42.4431 29.7485 41.6681 29.6193 40.1611C29.1888 40.2473 28.8443 40.2903 28.4999 40.3764ZM30.6957 39.3C31.3415 42.9167 35.8193 42.1417 35.1735 38.482C34.5276 34.9084 30.0499 35.6834 30.6957 39.3ZM31.8582 39.1278C31.5138 37.2334 33.7096 36.8459 34.054 38.7403C34.3985 40.6348 32.2026 41.0223 31.8582 39.1278ZM38.0151 39.5153C37.6707 37.2764 37.7999 38.1806 37.4124 35.4681C37.0249 35.5111 36.6804 35.5973 36.2929 35.6403L37.111 40.8931C38.0151 40.7639 38.9193 40.6348 39.8235 40.4625C39.7374 40.032 39.6943 39.6875 39.6513 39.257L38.0151 39.5153ZM42.1485 34.8223L40.4693 35.0375L41.1582 40.3334L42.8374 40.1181C45.7221 39.6875 45.0332 34.4348 42.1485 34.8223ZM42.6651 38.8695L42.1485 38.9556L41.804 36.1139L42.3207 36.0278C43.7415 35.8556 44.086 38.6973 42.6651 38.8695ZM51.4915 36.4153C51.7068 36.2 51.7929 35.7695 51.7499 35.4681C51.6638 34.5639 50.9749 33.875 50.2429 33.9611L48.3485 34.1334L48.8221 39.4292L50.8888 39.257C51.7929 39.1709 52.1804 38.3959 52.1374 37.4486C52.0513 36.975 51.879 36.5875 51.4915 36.4153ZM49.554 35.2098L50.2429 35.1667C50.7165 35.1236 50.7596 35.9848 50.329 36.0278L49.5971 36.0709L49.554 35.2098ZM50.6735 38.0514L49.7693 38.1375L49.6832 37.2334L50.5874 37.1473C51.061 37.1042 51.1471 38.0084 50.6735 38.0514ZM56.486 36.975C57.5624 35.9848 57.0888 33.4875 55.3665 33.6167C54.7207 33.6598 54.0749 33.7028 53.429 33.7459C53.5151 35.5111 53.6443 37.2764 53.7304 39.0417C54.1179 39.0417 54.5054 38.9986 54.8499 38.9556L54.7638 37.4056L55.3665 37.3625L56.2276 38.8695L57.4763 38.7834V38.5681L56.486 36.975ZM55.4957 36.1139L54.6776 36.157C54.6346 35.7264 54.6346 35.2528 54.5915 34.8223C54.8499 34.8223 55.1513 34.7792 55.4096 34.7792C56.0554 34.7792 56.0985 36.1139 55.4957 36.1139ZM59.8443 37.4917C59.8443 37.1903 59.8443 36.8889 59.8013 36.5445L61.3082 36.5014C61.3082 36.1139 61.2651 35.6834 61.2651 35.2959L59.7582 35.3389V34.607C60.404 34.607 60.7485 34.5639 61.3943 34.5639C61.3943 34.1334 61.3513 33.7459 61.3513 33.3584C60.3179 33.4014 59.629 33.4014 58.5957 33.4445C58.6388 35.2098 58.6818 36.975 58.7679 38.7834C59.8013 38.7403 60.5763 38.7403 61.6096 38.6973C61.6096 38.3098 61.5665 37.8792 61.5665 37.4917C60.8776 37.4917 60.4901 37.4917 59.8443 37.4917ZM66.8193 35.3389L66.604 36.2431L65.8721 33.4014C65.6999 33.4014 65.5707 33.4014 65.3985 33.4014L64.6235 36.2431L64.4513 35.3389L63.8915 33.3153H62.729V33.5306L64.236 38.7403H64.8818L65.6138 36.2L66.3026 38.7834H66.9485L68.5415 33.6167V33.4014H67.4221L66.8193 35.3389ZM74.3971 34.8653C74.8707 34.9084 75.1721 35.1667 75.3013 35.7264C75.6888 35.7695 76.0332 35.7695 76.4207 35.8125C76.3776 34.3917 75.4304 33.7028 74.4832 33.6167C73.3638 33.5306 72.1582 34.3486 71.986 36.157C71.8568 37.9653 72.9332 38.9556 74.0526 39.0417C74.9999 39.1278 76.0332 38.6111 76.2915 37.1042C75.904 37.0611 75.5596 37.0611 75.1721 37.0181C74.9999 37.5778 74.6124 37.8361 74.1388 37.7931C73.4499 37.75 73.1054 37.0181 73.1485 36.2431C73.2776 35.382 73.7513 34.8223 74.3971 34.8653ZM77.6693 36.6736C77.2388 40.3334 81.7596 40.8931 82.1902 37.2334C82.6207 33.5306 78.0999 33.0139 77.6693 36.6736ZM81.0707 37.0611C80.8554 38.9986 78.6165 38.6973 78.8749 36.8028C79.0471 34.9084 81.286 35.1667 81.0707 37.0611ZM83.3096 40.032C83.6971 40.075 84.0846 40.1611 84.4721 40.2042L84.7304 38.482L86.1513 38.6973C86.2374 38.2236 86.2804 37.9653 86.3235 37.4917L84.9027 37.2764L85.0749 36.1139L86.6679 36.3723C86.754 35.9417 86.7971 35.5973 86.8402 35.1667C85.936 35.0375 84.9888 34.8653 84.1277 34.7361L83.3096 40.032ZM87.486 40.7209C87.8735 40.807 88.261 40.85 88.6054 40.9361L88.9068 39.257L90.3277 39.5153C90.4138 39.0417 90.4568 38.7834 90.5429 38.3098L89.1221 38.0514L89.3374 36.8889L90.9304 37.1903C91.0165 36.7598 91.0596 36.4153 91.1457 35.9848C90.2415 35.8125 89.3374 35.6403 88.4332 35.4681L87.486 40.7209ZM91.6624 41.5389C92.6527 41.7542 93.4277 41.9264 94.4179 42.1417C94.504 41.7542 94.5902 41.3667 94.6763 40.9792C94.0304 40.85 93.6429 40.7639 92.9971 40.6348C93.0832 40.3334 93.1263 40.032 93.2124 39.7306L94.6763 40.075C94.7624 39.6875 94.8485 39.3 94.9346 38.9125L93.4707 38.5681L93.6429 37.8361C94.2888 37.9653 94.5902 38.0514 95.236 38.1806C95.3221 37.7931 95.4082 37.3625 95.4943 36.975C94.461 36.7598 93.7721 36.5875 92.7818 36.3723C92.4374 38.0514 92.0499 39.7736 91.6624 41.5389ZM99.6707 39.2139C99.7568 38.8264 99.886 38.4389 99.9721 38.0514C98.9818 37.7931 98.2929 37.6209 97.3027 37.3625C96.8721 39.0848 96.4415 40.807 96.011 42.5292C97.0013 42.7875 97.7332 42.9598 98.7665 43.2181C98.8527 42.8306 98.9818 42.4431 99.0679 42.0556C98.4221 41.8834 98.0346 41.7973 97.4318 41.625C97.5179 41.3236 97.604 41.0223 97.6471 40.7209L99.111 41.1084C99.1971 40.7209 99.3263 40.3334 99.4124 39.9459L97.9485 39.5584L98.1207 38.8264C98.6804 38.9556 99.0249 39.0417 99.6707 39.2139Z" fill="white"/>
</svg>
