<svg width="134" height="28" viewBox="0 0 134 28" fill="none" xmlns="http://www.w3.org/2000/svg">
<path d="M93.2863 0.400647H88.5963C88.3283 0.400647 88.1943 0.667721 88.1943 0.801266V10.973H83.5043V0.801266C83.5043 0.534176 83.2363 0.400647 83.1023 0.400647H78.4123C78.1443 0.400647 78.0103 0.667721 78.0103 0.801266V26.9094C78.0103 27.1765 78.2783 27.31 78.4123 27.31H83.1023C83.3703 27.31 83.5043 27.0429 83.5043 26.9094V16.4706H88.1943V26.9094C88.1943 27.1765 88.4623 27.31 88.5963 27.31H93.2863C93.5543 27.31 93.6883 27.0429 93.6883 26.9094V0.801266C93.6883 0.667721 93.5543 0.400647 93.2863 0.400647ZM53.7563 0.400647H49.0663C48.7983 0.400647 48.6643 0.534176 48.6643 0.801266V19.2973C48.6643 20.2321 48.3963 20.8998 47.9943 21.434C47.5923 21.9682 47.0563 22.1018 46.3863 22.1018C45.7387 22.1018 45.1803 21.8347 44.7783 21.434C44.3763 20.8998 44.1083 20.2321 44.1083 19.2973V0.801266C44.1083 0.534176 43.8403 0.400647 43.7063 0.400647H39.0163C38.7483 0.400647 38.6143 0.534176 38.6143 0.801266V19.4308C38.6143 21.8347 39.1503 24.1049 40.6243 25.5962C42.0983 27.0652 44.1083 27.8664 46.4087 27.8664C48.8207 27.8664 50.853 27.0652 52.193 25.5962C53.667 24.1272 54.203 21.9905 54.203 19.4308V0.801266C54.1807 0.667721 54.0467 0.400647 53.7563 0.400647ZM7.79433 0C5.38233 0 3.35 0.801261 2.01 2.27026C0.536 3.73926 0 5.876 0 8.43561V19.5644C0 21.9682 0.536 24.2385 2.01 25.7297C3.484 27.1987 5.494 28 7.79433 28C10.2063 28 12.2387 27.1987 13.5787 25.7297C15.0527 24.2607 15.5887 22.124 15.5887 19.5644V13.4213C15.5887 13.1542 15.3207 12.8871 15.0527 12.8871H8.19633C7.92833 12.8871 7.66033 13.1542 7.66033 13.4213V17.9841C7.66033 18.2512 7.92833 18.5183 8.19633 18.5183H9.96066V19.5866C9.96066 20.5215 9.69266 21.345 9.29066 21.8569C8.88866 22.3911 8.35266 22.5246 7.68267 22.5246C7.035 22.5246 6.47667 22.2575 6.07467 21.8569C5.67267 21.3227 5.40467 20.5215 5.40467 19.5866V8.59141C5.40467 7.65659 5.67267 6.83307 6.07467 6.32115C6.47667 5.78697 7.01267 5.65342 7.68267 5.65342C8.33033 5.65342 8.88866 5.92051 9.29066 6.32115C9.69266 6.85533 9.96066 7.65659 9.96066 8.59141V9.65978C9.96066 9.92687 10.2287 10.0604 10.3627 10.0604H15.0527C15.3207 10.0604 15.4547 9.92687 15.4547 9.65978V8.59141C15.4547 6.18759 14.9187 3.91733 13.4447 2.42608C12.2387 0.801277 10.0723 0 7.79433 0ZM68.273 21.3005C67.871 21.8346 67.335 21.9682 66.5087 21.9682H63.8287V16.3148H66.5087C67.1787 16.3148 67.7147 16.5819 68.1167 16.9825C68.5187 17.5167 68.7867 18.1844 68.7867 18.9857C68.8313 20.0986 68.6973 20.744 68.273 21.3005ZM63.8287 5.89825H66.2407C66.9107 5.89825 67.4467 6.03179 67.8487 6.56598C68.2507 6.96661 68.3847 7.63434 68.3847 8.45787C68.3847 9.28139 68.2507 9.92686 67.8487 10.461C67.4467 10.8617 66.9107 11.1288 66.3747 11.1288H63.9627V5.89825H63.8287ZM71.623 13.5326C72.427 12.7313 73.901 10.8617 73.901 8.43561C73.901 5.60891 72.829 3.8728 72.0027 2.93798C70.5287 1.33544 68.5187 0.534186 66.2183 0.534186H58.8707C58.6027 0.534186 58.4687 0.801261 58.4687 0.934806V27.0652C58.4687 27.3323 58.7367 27.4658 58.8707 27.4658H66.665C69.077 27.4658 71.355 26.531 72.8513 24.6391C73.6553 23.5707 74.6157 21.8124 74.6157 19.1415C74.4593 15.9364 72.4493 14.0445 71.623 13.5326ZM28.8993 10.973C28.4973 11.5072 27.8273 11.7742 27.001 11.7742H24.723V5.89825H27.001C27.805 5.89825 28.475 6.16533 28.8993 6.69951C29.4353 7.2337 29.5693 7.90142 29.5693 8.83623C29.5693 9.77105 29.4577 10.4388 28.8993 10.973ZM31.8697 15.8029C32.4057 15.4022 32.8077 15.1351 33.2097 14.6009C34.1477 13.5326 35.3537 11.6407 35.3537 8.70269C35.3537 5.87599 34.2817 4.0286 33.2097 2.93798C31.8697 1.33544 29.8597 0.534192 27.5593 0.400647H19.765C19.497 0.400647 19.363 0.667721 19.363 0.801266V26.9094C19.363 27.1765 19.631 27.31 19.765 27.31H24.455C24.723 27.31 24.857 27.0429 24.857 26.9094V17.2496H26.465L29.4353 27.1542C29.4353 27.2877 29.7033 27.4213 29.8373 27.4213H34.7953C34.9293 27.4213 35.0633 27.2877 35.1973 27.2877C35.3313 27.2877 35.3313 27.0207 35.3313 26.8871L31.8697 15.8029ZM127.546 21.3005C127.144 21.8346 126.608 21.9682 125.781 21.9682H123.101V16.3148H125.781C126.451 16.3148 126.987 16.5819 127.389 16.9825C127.791 17.5167 128.059 18.1844 128.059 18.9857C128.216 20.0986 127.97 20.744 127.546 21.3005ZM123.235 5.89825H125.647C126.317 5.89825 126.853 6.03179 127.255 6.56598C127.657 6.96661 127.791 7.63434 127.791 8.45787C127.791 9.28139 127.657 9.92686 127.255 10.461C126.853 10.8617 126.317 11.1288 125.781 11.1288H123.369V5.89825H123.235ZM131.03 13.5326C131.834 12.7313 133.308 10.8617 133.308 8.43561C133.308 5.60891 132.236 3.8728 131.409 2.93798C129.935 1.33544 127.925 0.534186 125.625 0.534186H118.21C117.942 0.534186 117.808 0.801261 117.808 0.934806V27.0652C117.808 27.3323 118.076 27.4658 118.21 27.4658H126.049C128.461 27.4658 130.739 26.531 132.236 24.6391C133.04 23.5707 134 21.8124 134 19.1415C133.732 15.9364 131.722 14.0445 131.03 13.5326ZM113.029 0.400647H108.339C108.071 0.400647 107.937 0.534176 107.937 0.801266V19.2973C107.937 20.2321 107.669 20.8998 107.267 21.434C106.865 21.9682 106.329 22.1018 105.659 22.1018C105.011 22.1018 104.453 21.8347 104.051 21.434C103.649 20.8998 103.381 20.2321 103.381 19.2973V0.801266C103.381 0.534176 103.113 0.400647 102.979 0.400647H98.2667C97.9987 0.400647 97.8647 0.534176 97.8647 0.801266V19.4308C97.8647 21.8347 98.4007 24.1049 99.8747 25.5962C101.349 27.0652 103.359 27.8664 105.659 27.8664C108.071 27.8664 110.103 27.0652 111.443 25.5962C112.917 24.1272 113.453 21.9905 113.453 19.4308V0.801266C113.587 0.667721 113.319 0.400647 113.029 0.400647Z" fill="#ABABAB"/>
</svg>
