<svg width="204" height="28" viewBox="0 0 204 28" fill="none" xmlns="http://www.w3.org/2000/svg">
<path fill-rule="evenodd" clip-rule="evenodd" d="M0 1.10025C0 0.720839 0.302584 0.379272 0.721168 0.379272H16.4376C16.856 0.379272 17.1587 0.720839 17.1587 1.10025V5.2386C17.1587 5.61801 16.856 5.95958 16.4376 5.95958H5.92092V11.4265H14.577C14.9587 11.4265 15.2993 11.7692 15.2993 12.1477V16.286C15.2993 16.6655 14.9587 17.0072 14.577 17.0072H5.92092V26.232C5.92092 26.6114 5.58049 26.9529 5.19994 26.9529H0.721168C0.302584 26.9529 0 26.6114 0 26.232V1.10025Z" fill="#ABABAB"/>
<path fill-rule="evenodd" clip-rule="evenodd" d="M39.1176 0C46.7098 0 52.7821 6.11129 52.7821 13.7047C52.7821 21.2971 46.7098 27.3327 39.1176 27.3327C31.5251 27.3327 25.4863 21.2971 25.4863 13.7047C25.4863 6.11129 31.5251 0 39.1176 0ZM39.1176 21.2579C43.2926 21.2579 46.7098 17.8409 46.7098 13.7047C46.7098 9.52847 43.2926 6.07458 39.1176 6.07458C34.9792 6.07458 31.563 9.52847 31.563 13.7047C31.563 17.8409 34.9792 21.2579 39.1176 21.2579Z" fill="#ABABAB"/>
<path fill-rule="evenodd" clip-rule="evenodd" d="M68.2638 13.3242L60.5947 1.44201C60.291 0.949054 60.5947 0.379272 61.2412 0.379272H66.7849C67.051 0.379272 67.2769 0.569641 67.3914 0.721028L71.7591 7.78265H71.7957L76.2368 0.721028C76.3113 0.569641 76.5772 0.379272 76.8433 0.379272H82.387C83.0301 0.379272 83.3739 0.949054 83.0301 1.44201L75.3275 13.3242L83.2961 25.8904C83.64 26.4223 83.2961 26.9531 82.6896 26.9531H77.4129C77.1871 26.9531 76.8809 26.8017 76.7698 26.6116L71.7957 18.9434H71.7179L66.8586 26.6116C66.7471 26.7628 66.5179 26.9531 66.2153 26.9531H60.9386C60.291 26.9531 59.9504 26.3833 60.291 25.8904L68.2638 13.3242Z" fill="#ABABAB"/>
<path fill-rule="evenodd" clip-rule="evenodd" d="M99.1625 5.95952H93.7343C93.3159 5.95952 93.0122 5.61795 93.0122 5.23835V1.1002C93.0122 0.72173 93.3159 0.379028 93.7343 0.379028H110.589C111.008 0.379028 111.31 0.72173 111.31 1.1002V5.23835C111.31 5.61795 111.008 5.95952 110.589 5.95952H105.161V26.2317C105.161 26.6111 104.817 26.9527 104.439 26.9527H99.8835C99.5029 26.9527 99.1625 26.6111 99.1625 26.2317V5.95952Z" fill="#ABABAB"/>
<path fill-rule="evenodd" clip-rule="evenodd" d="M121.939 1.10025C121.939 0.720839 122.241 0.379272 122.66 0.379272H134.009C138.566 0.379272 142.286 4.06232 142.286 8.57913C142.286 12.072 139.97 14.8806 136.669 16.2103L141.867 25.8535C142.134 26.3464 141.867 26.9529 141.224 26.9529H136.173C135.869 26.9529 135.644 26.7626 135.566 26.6114L130.518 16.551H127.9V26.232C127.9 26.6114 127.556 26.9529 127.179 26.9529H122.66C122.241 26.9529 121.939 26.6114 121.939 26.232V1.10025ZM133.517 11.7304C135.074 11.7304 136.401 10.2883 136.401 8.69267C136.401 7.09914 135.074 5.80819 133.517 5.80819H127.9V11.7304H133.517Z" fill="#ABABAB"/>
<path fill-rule="evenodd" clip-rule="evenodd" d="M164.742 0C172.335 0 178.407 6.11129 178.407 13.7047C178.407 21.2971 172.335 27.3327 164.742 27.3327C157.15 27.3327 151.111 21.2971 151.111 13.7047C151.111 6.11129 157.15 0 164.742 0ZM164.742 21.2579C168.917 21.2579 172.334 17.8409 172.334 13.7047C172.334 9.52847 168.917 6.07458 164.742 6.07458C160.604 6.07458 157.187 9.52847 157.187 13.7047C157.187 17.8409 160.604 21.2579 164.742 21.2579Z" fill="#ABABAB"/>
<path fill-rule="evenodd" clip-rule="evenodd" d="M191.697 5.95952H186.268C185.851 5.95952 185.547 5.61795 185.547 5.23835V1.1002C185.547 0.72173 185.851 0.379028 186.268 0.379028H203.125C203.543 0.379028 203.846 0.72173 203.846 1.1002V5.23835C203.846 5.61795 203.543 5.95952 203.125 5.95952H197.694V26.2317C197.694 26.6111 197.352 26.9527 196.973 26.9527H192.418C192.038 26.9527 191.697 26.6111 191.697 26.2317V5.95952Z" fill="#ABABAB"/>
</svg>
