<svg width="35" height="35" viewBox="0 0 35 35" fill="none" xmlns="http://www.w3.org/2000/svg">
<title>Next.js</title>
<g clip-path="url(#clip0_501_11)">
<path d="M17.5 35C27.165 35 35 27.165 35 17.5C35 7.83502 27.165 0 17.5 0C7.83502 0 0 7.83502 0 17.5C0 27.165 7.83502 35 17.5 35Z" fill="black"/>
<path d="M29.071 30.629L13.4443 10.5H10.5V24.4942H12.8554V13.4912L27.222 32.0532C27.8703 31.6193 28.4879 31.1433 29.071 30.629Z" fill="url(#paint0_linear_501_11)"/>
<path d="M24.6945 10.5H22.3612V24.5H24.6945V10.5Z" fill="url(#paint1_linear_501_11)"/>
</g>
<defs>
<linearGradient id="paint0_linear_501_11" x1="21.1944" y1="22.6528" x2="28.0972" y2="31.2083" gradientUnits="userSpaceOnUse">
<stop stop-color="white"/>
<stop offset="1" stop-color="white" stop-opacity="0"/>
</linearGradient>
<linearGradient id="paint1_linear_501_11" x1="23.5279" y1="10.5" x2="23.4888" y2="20.7813" gradientUnits="userSpaceOnUse">
<stop stop-color="white"/>
<stop offset="1" stop-color="white" stop-opacity="0"/>
</linearGradient>
<clipPath id="clip0_501_11">
<rect width="35" height="35" fill="white"/>
</clipPath>
</defs>
</svg>
