<svg width="32" height="35" viewBox="0 0 32 35" fill="none" xmlns="http://www.w3.org/2000/svg">
<path d="M28.5304 18.1573C28.3214 17.9228 28.1008 17.6876 27.8687 17.4519C28.0308 17.2846 28.1877 17.1175 28.3394 16.9505C31.2021 13.7931 32.4104 10.6265 31.2908 8.72285C30.2173 6.89761 27.024 6.35367 23.0262 7.11672C22.6324 7.19235 22.2408 7.27765 21.8514 7.37264C21.7768 7.12036 21.6975 6.86953 21.6135 6.62014C20.2573 2.60823 18.0665 -0.00138195 15.8273 5.49036e-07C13.6802 0.000963046 11.605 2.4449 10.2812 6.22561C10.1509 6.59858 10.0304 6.97466 9.91969 7.35385C9.65931 7.29114 9.39785 7.23321 9.13528 7.18007C4.91734 6.32996 1.52004 6.88985 0.402677 8.79462C-0.668745 10.6212 0.451757 13.6068 3.1276 16.6208C3.39298 16.919 3.66587 17.2105 3.94627 17.4954C3.61571 17.8296 3.3027 18.1637 3.01096 18.4959C0.399968 21.4673 -0.656461 24.4041 0.413231 26.2228C1.51797 28.1014 4.86746 28.7154 8.94432 27.9279C9.27472 27.8636 9.60329 27.7913 9.93003 27.7109C10.0497 28.1211 10.181 28.5277 10.3239 28.9307C11.6419 32.6355 13.7055 35.0008 15.845 35C18.0546 34.9987 20.2697 32.4575 21.6117 28.5972C21.7177 28.2922 21.818 27.9753 21.9131 27.6492C22.3352 27.7522 22.76 27.8437 23.1875 27.9235C27.1155 28.6531 30.2338 28.0793 31.3015 26.2593C32.4041 24.3793 31.2673 21.2263 28.5304 18.1573ZM1.72259 9.54069C2.41048 8.3682 5.18687 7.91076 8.82871 8.6447C9.06146 8.69168 9.2982 8.74418 9.53891 8.80219C9.18336 10.3462 8.93248 11.9116 8.78792 13.4881C7.47387 14.3956 6.22102 15.3856 5.03725 16.4519C4.77643 16.1871 4.52258 15.9159 4.2757 15.6383L4.27581 15.6384C1.98309 13.056 1.07691 10.6414 1.72259 9.54069ZM8.65147 19.5648C7.74128 18.8883 6.89539 18.1952 6.12764 17.4981C6.89485 16.8053 7.74128 16.1145 8.64962 15.4398C8.61693 16.1272 8.60076 16.815 8.60109 17.5034C8.60158 18.1908 8.61837 18.8779 8.65147 19.5648ZM8.65038 26.4609C7.10522 26.7981 5.51002 26.8534 3.94449 26.6239C3.51532 26.5911 3.09757 26.4722 2.71704 26.2747C2.33652 26.0771 2.0013 25.8051 1.73211 25.4753C1.08308 24.3717 1.93135 22.0138 4.16433 19.4724C4.44506 19.1539 4.735 18.8438 5.03414 18.5419C6.2181 19.6138 7.47298 20.6077 8.79058 21.517C8.93711 23.1137 9.19094 24.6991 9.55039 26.263C9.25211 26.3362 8.9521 26.4022 8.65038 26.4609ZM21.3098 12.392C20.7119 12.0222 20.1066 11.6642 19.4939 11.3181C18.891 10.9775 18.2808 10.6496 17.6634 10.3345C18.7205 9.8982 19.7597 9.52554 20.7629 9.22186C20.9994 10.2689 21.1819 11.3269 21.3098 12.392ZM11.7216 6.7116C12.8558 3.47211 14.5341 1.49569 15.8282 1.49514C17.2064 1.4945 18.997 3.62709 20.1679 7.09098C20.244 7.31679 20.3159 7.54387 20.3836 7.77222C18.8453 8.24057 17.3403 8.80835 15.8784 9.47181C14.4225 8.80054 12.9222 8.22644 11.3877 7.75342C11.4903 7.40352 11.6016 7.05624 11.7216 6.7116ZM11.0078 9.20322C12.0543 9.52661 13.0834 9.90159 14.0914 10.3267C12.8425 10.9594 11.6258 11.6486 10.4415 12.3942C10.5846 11.2777 10.775 10.2079 11.0078 9.20322ZM10.4441 22.6094C11.0347 22.9805 11.634 23.3379 12.2419 23.6816C12.8619 24.0321 13.4903 24.3678 14.1269 24.6889C13.1112 25.1287 12.0732 25.5171 11.017 25.8525C10.7814 24.8338 10.5889 23.7453 10.4441 22.6094ZM20.1701 28.114C19.6959 29.5965 18.9477 30.9806 17.9629 32.1972L17.9628 32.1973C17.7195 32.5458 17.4059 32.8416 17.0415 33.0664C16.6771 33.2913 16.2696 33.4404 15.8442 33.5045C14.546 33.5053 12.8891 31.6058 11.7619 28.4375C11.6292 28.0629 11.507 27.6849 11.3955 27.3035C12.9374 26.8152 14.4438 26.2249 15.9044 25.5365C17.3783 26.2043 18.8953 26.7763 20.4457 27.2489C20.361 27.5394 20.2692 27.8277 20.1701 28.114ZM20.8159 25.7966C19.8012 25.4886 18.7469 25.1097 17.6745 24.667C18.279 24.3547 18.888 24.0248 19.5013 23.6775C20.1306 23.3207 20.744 22.955 21.3412 22.5804C21.2223 23.6606 21.0469 24.7341 20.8159 25.7967V25.7966ZM21.6115 17.497C21.6128 18.5597 21.579 19.6216 21.5101 20.6827C20.6318 21.2662 19.7045 21.836 18.7398 22.3827C17.779 22.9272 16.827 23.4277 15.8932 23.8805C14.9105 23.4183 13.9468 22.9201 13.002 22.386C12.0626 21.8552 11.1446 21.29 10.2483 20.6903C10.1663 19.6296 10.1251 18.5669 10.1245 17.5023L10.1247 17.5026C10.1239 16.4388 10.1643 15.376 10.2458 14.3144C11.1239 13.7258 12.0444 13.1565 12.9961 12.6171C13.9523 12.0751 14.9161 11.5768 15.8747 11.1252C16.8453 11.5883 17.7983 12.0845 18.7339 12.6139C19.6727 13.1435 20.5932 13.7028 21.4953 14.2916C21.5728 15.3584 21.6116 16.4269 21.6116 17.497H21.6115ZM23.3171 8.58453C26.7423 7.93052 29.3249 8.37047 29.9719 9.47041C30.6611 10.6422 29.6733 13.2303 27.2018 15.9565L27.2017 15.9566C27.0652 16.107 26.9235 16.2581 26.7767 16.4097C25.5724 15.3411 24.2954 14.3543 22.9546 13.456C22.8193 11.8967 22.5778 10.348 22.2318 8.82036C22.6006 8.73129 22.9624 8.65268 23.3171 8.58453ZM23.0856 15.3827C23.99 16.031 24.8596 16.7248 25.6908 17.4614C24.8633 18.2102 23.9964 18.916 23.0938 19.576C23.1215 18.8831 23.1351 18.1898 23.1346 17.4963C23.1343 16.7916 23.118 16.0871 23.0856 15.3827ZM29.9814 25.513C29.3334 26.6176 26.8297 27.0781 23.4704 26.4543C23.0855 26.3829 22.6904 26.298 22.2854 26.1995C22.6231 24.6522 22.8538 23.0843 22.9761 21.5064C24.3147 20.5925 25.5877 19.5892 26.786 18.5037C26.9956 18.7175 27.1951 18.9303 27.3843 19.1422V19.1421C28.4558 20.2858 29.3037 21.6133 29.8856 23.0584C30.0717 23.4394 30.1762 23.8538 30.1927 24.276C30.2091 24.6982 30.1372 25.1192 29.9814 25.513ZM14.2602 14.7663C13.7148 15.0754 13.2751 15.5363 12.9966 16.0907C12.718 16.6451 12.6133 17.2681 12.6955 17.8809C12.7777 18.4938 13.0432 19.069 13.4584 19.5337C13.8736 19.9985 14.4198 20.3319 15.0281 20.4919C15.6364 20.6518 16.2793 20.6312 16.8756 20.4324C17.4718 20.2337 17.9947 19.8659 18.378 19.3755C18.7614 18.8851 18.9879 18.2941 19.0291 17.6772C19.0702 17.0604 18.9241 16.4455 18.6093 15.9101C18.187 15.1924 17.4916 14.6687 16.676 14.4542C15.8604 14.2397 14.9915 14.352 14.2602 14.7663L14.2602 14.7663Z" fill="#61DBFB"/>
</svg>
