<svg width="47" height="35" viewBox="0 0 47 35" fill="none" xmlns="http://www.w3.org/2000/svg">
<g clip-path="url(#clip0)">
<path d="M40.3182 20.1159C38.6901 20.1245 37.2751 20.5166 36.0902 21.0962C35.6555 20.2353 35.2208 19.4681 35.144 18.9055C35.0588 18.2492 34.9565 17.8485 35.0588 17.0643C35.1611 16.2801 35.6214 15.1634 35.6129 15.0782C35.6043 14.993 35.5106 14.5923 34.5729 14.5838C33.6353 14.5753 32.8255 14.7628 32.7317 15.01C32.6379 15.2572 32.4589 15.8198 32.3396 16.3994C32.1776 17.2518 30.4643 20.2949 29.484 21.889C29.1686 21.2667 28.8959 20.7212 28.8362 20.2864C28.751 19.6301 28.6487 19.2294 28.751 18.4452C28.8532 17.661 29.3135 16.5443 29.305 16.4591C29.2965 16.3739 29.2027 15.9732 28.2651 15.9647C27.3274 15.9562 26.5176 16.1437 26.4239 16.3909C26.3301 16.6381 26.2278 17.2177 26.0318 17.7803C25.8357 18.3429 23.5598 23.4233 22.9631 24.736C22.6562 25.4094 22.392 25.9464 22.2044 26.313C22.2044 26.313 22.1959 26.3385 22.1703 26.3812C22.0084 26.6966 21.9146 26.867 21.9146 26.867C21.9146 26.867 21.9146 26.867 21.9146 26.8756C21.7868 27.1057 21.6504 27.3188 21.5822 27.3188C21.531 27.3188 21.4373 26.7051 21.5992 25.8697C21.9402 24.1052 22.75 21.3605 22.7415 21.2667C22.7415 21.2156 22.8949 20.7382 22.213 20.491C21.5481 20.2438 21.3094 20.653 21.2497 20.653C21.1901 20.653 21.1475 20.7979 21.1475 20.7979C21.1475 20.7979 21.8891 17.7121 19.7325 17.7121C18.3856 17.7121 16.5274 19.1868 15.6068 20.5166C15.0271 20.832 13.7912 21.5054 12.4699 22.2299C11.967 22.5112 11.447 22.7925 10.9611 23.0568C10.9271 23.0227 10.893 22.98 10.8589 22.9459C8.25048 20.1586 3.42584 18.1895 3.63042 14.4474C3.70714 13.0836 4.17596 9.50343 12.8961 5.15613C20.0734 1.61862 25.7846 2.5989 26.7734 4.77255C28.1884 7.87532 23.7132 13.6376 16.2972 14.473C13.4672 14.7884 11.984 13.6973 11.609 13.2881C11.2169 12.8619 11.1572 12.8364 11.0123 12.9216C10.7736 13.0495 10.9271 13.433 11.0123 13.6547C11.2339 14.2343 12.146 15.2572 13.6889 15.7601C15.0527 16.2034 18.3686 16.4506 22.3834 14.8992C26.8757 13.1603 30.3876 8.3271 29.3562 4.27815C28.3247 0.169526 21.5055 -1.18581 15.0527 1.10718C11.2169 2.47104 7.05711 4.61911 4.06515 7.41502C0.510596 10.7394 -0.0519946 13.6291 0.178156 14.8395C1.00499 19.1357 6.92925 21.9316 9.29895 24.0029C9.17961 24.0711 9.0688 24.1308 8.97503 24.1819C7.79018 24.7701 3.27241 27.1313 2.14722 29.6289C0.868609 32.4589 2.3518 34.4876 3.33208 34.7604C6.37518 35.6043 9.50353 34.087 11.1828 31.5809C12.862 29.0748 12.6574 25.8186 11.8818 24.3269C11.8732 24.3098 11.8647 24.2928 11.8477 24.2757C12.1545 24.0967 12.4699 23.9092 12.7768 23.7302C13.382 23.3722 13.9787 23.0397 14.4901 22.7669C14.2003 23.5597 13.9872 24.5059 13.8849 25.8697C13.7571 27.4722 14.4134 29.5521 15.2743 30.3704C15.6579 30.7285 16.1097 30.737 16.3995 30.737C17.4054 30.737 17.8571 29.9016 18.3601 28.9128C18.9738 27.7024 19.5279 26.2959 19.5279 26.2959C19.5279 26.2959 18.8374 30.0977 20.7127 30.0977C21.3947 30.0977 22.0851 29.2112 22.392 28.7594C22.392 28.7679 22.392 28.7679 22.392 28.7679C22.392 28.7679 22.409 28.7423 22.4431 28.6827C22.5113 28.5719 22.5539 28.5037 22.5539 28.5037C22.5539 28.5037 22.5539 28.4951 22.5539 28.4866C22.8267 28.0093 23.4404 26.9267 24.3525 25.1281C25.5288 22.8096 26.6626 19.9114 26.6626 19.9114C26.6626 19.9114 26.7648 20.6189 27.1143 21.7952C27.3189 22.4856 27.7451 23.2443 28.0861 23.9774C27.8133 24.3609 27.6428 24.5741 27.6428 24.5741C27.6428 24.5741 27.6428 24.5741 27.6513 24.5826C27.4297 24.8724 27.191 25.1878 26.9268 25.4947C25.9977 26.6028 24.8895 27.8729 24.7361 28.2394C24.5571 28.6741 24.5997 28.9895 24.9407 29.2453C25.1879 29.4328 25.6311 29.4584 26.0829 29.4328C26.9183 29.3731 27.5064 29.1685 27.7963 29.0407C28.248 28.8787 28.7765 28.6315 29.2709 28.265C30.183 27.5916 30.7371 26.6284 30.6859 25.3583C30.6604 24.6593 30.4302 23.9603 30.1489 23.304C30.2341 23.1846 30.3109 23.0653 30.3961 22.9459C31.8367 20.8405 32.9533 18.5305 32.9533 18.5305C32.9533 18.5305 33.0556 19.238 33.4051 20.4143C33.5756 21.011 33.9251 21.6588 34.232 22.2896C32.8766 23.3892 32.0413 24.6678 31.7429 25.5032C31.2059 27.0546 31.6236 27.7535 32.4163 27.9155C32.7743 27.9922 33.2858 27.8217 33.6608 27.6598C34.1382 27.5063 34.7008 27.2421 35.2378 26.85C36.1499 26.1766 37.0279 25.2389 36.9767 23.9688C36.9511 23.3892 36.7977 22.8181 36.5846 22.264C37.7354 21.7867 39.2186 21.5224 41.1109 21.7441C45.1684 22.2214 45.9697 24.7531 45.8162 25.8186C45.6628 26.8841 44.8104 27.4637 44.5291 27.6427C44.2478 27.8217 44.154 27.8814 44.1796 28.0093C44.2137 28.1968 44.3501 28.1883 44.5887 28.1542C44.9212 28.0945 46.7198 27.2932 46.7965 25.3327C46.9244 22.8266 44.5376 20.0904 40.3182 20.1159ZM9.01765 30.6688C7.67084 32.1349 5.79554 32.689 4.98575 32.2202C4.11629 31.7173 4.45726 29.5521 6.11093 28.0007C7.11678 27.0546 8.41244 26.1766 9.27338 25.6396C9.46943 25.5202 9.75925 25.3497 10.1087 25.1366C10.1684 25.1025 10.2025 25.0855 10.2025 25.0855C10.2707 25.0429 10.3389 25.0003 10.4071 24.9576C11.0123 27.1739 10.4327 29.1259 9.01765 30.6688ZM18.8204 24.0029C18.3515 25.1452 17.3713 28.0689 16.7746 27.907C16.2631 27.7706 15.9478 25.5543 16.6723 23.3636C17.0388 22.264 17.8145 20.9513 18.2663 20.4399C18.9994 19.6215 19.8092 19.3488 20.0052 19.6812C20.2524 20.1159 19.1102 23.2869 18.8204 24.0029ZM26.9097 27.8729C26.7137 27.9752 26.5262 28.0434 26.4409 27.9922C26.3813 27.9581 26.5262 27.8217 26.5262 27.8217C26.5262 27.8217 27.5405 26.7307 27.9412 26.2363C28.1713 25.9464 28.4441 25.6055 28.7339 25.2219C28.7339 25.256 28.7339 25.2986 28.7339 25.3327C28.7339 26.6369 27.4723 27.5149 26.9097 27.8729ZM33.1494 26.4494C33.0045 26.3471 33.0301 26.0061 33.5159 24.9406C33.7035 24.5229 34.1467 23.8239 34.9054 23.1505C34.9906 23.4233 35.0503 23.6875 35.0417 23.9347C35.0332 25.5799 33.8569 26.1936 33.1494 26.4494Z" fill="#CD6799"/>
</g>
<defs>
<clipPath id="clip0">
<rect width="46.6951" height="35" fill="white" transform="translate(0.13623)"/>
</clipPath>
</defs>
</svg>
